<svg width="72" height="45" viewBox="0 0 72 45" fill="none" xmlns="http://www.w3.org/2000/svg">
<g filter="url(#filter0_d_24_49)">
<path d="M9.46875 6.44922V16.7812C9.46875 17.1784 9.46549 17.5072 9.45898 17.7676C9.45247 18.0215 9.4362 18.3079 9.41016 18.627C9.39062 18.9395 9.35482 19.1966 9.30273 19.3984C9.25716 19.5938 9.19531 19.8021 9.11719 20.0234C9.03906 20.2448 8.93815 20.4206 8.81445 20.5508C8.69727 20.681 8.55404 20.8047 8.38477 20.9219C8.21549 21.0326 8.01693 21.1107 7.78906 21.1562C7.5612 21.2083 7.30404 21.2344 7.01758 21.2344C6.22982 21.2344 5.45508 21.0618 4.69336 20.7168L4.89844 19.2129C5.4974 19.4408 6.00195 19.5547 6.41211 19.5547C6.83529 19.5547 7.11849 19.4212 7.26172 19.1543C7.41146 18.8874 7.48633 18.5033 7.48633 18.002V6.44922H9.46875ZM18.0234 21.2344C17.457 21.2344 16.9525 21.2214 16.5098 21.1953C16.0736 21.1693 15.6699 21.1042 15.2988 21C14.9277 20.9023 14.6087 20.8112 14.3418 20.7266C14.0814 20.6419 13.8438 20.4824 13.6289 20.248C13.4206 20.0072 13.248 19.8021 13.1113 19.6328C12.9746 19.457 12.8574 19.1706 12.7598 18.7734C12.6621 18.3698 12.5905 18.028 12.5449 17.748C12.4993 17.4616 12.4603 17.0221 12.4277 16.4297C12.4017 15.8372 12.3854 15.3294 12.3789 14.9062C12.3789 14.4831 12.3789 13.8711 12.3789 13.0703C12.3789 12.1068 12.4049 11.306 12.457 10.668C12.5091 10.0299 12.61 9.4375 12.7598 8.89062C12.916 8.34375 13.1178 7.91406 13.3652 7.60156C13.6191 7.28906 13.9609 7.02214 14.3906 6.80078C14.8268 6.57292 15.3314 6.41992 15.9043 6.3418C16.4837 6.25716 17.1901 6.21484 18.0234 6.21484C18.8112 6.21484 19.485 6.25391 20.0449 6.33203C20.6048 6.41016 21.0996 6.55013 21.5293 6.75195C21.9655 6.94727 22.3138 7.19466 22.5742 7.49414C22.8411 7.78711 23.0592 8.17448 23.2285 8.65625C23.3978 9.13802 23.5117 9.67839 23.5703 10.2773C23.6354 10.8698 23.668 11.5924 23.668 12.4453C23.668 14.8542 23.6322 16.4395 23.5605 17.2012C23.4368 18.5033 23.1374 19.4342 22.6621 19.9941C22.1608 20.5931 21.3079 20.9707 20.1035 21.127C19.5306 21.1986 18.8372 21.2344 18.0234 21.2344ZM19.4199 7.75781C19.0488 7.73177 18.5833 7.71875 18.0234 7.71875C17.4635 7.71875 16.998 7.73177 16.627 7.75781C16.2559 7.78385 15.9303 7.83919 15.6504 7.92383C15.377 8.00846 15.1654 8.10286 15.0156 8.20703C14.8659 8.3112 14.7422 8.47396 14.6445 8.69531C14.5534 8.91016 14.4915 9.13151 14.459 9.35938C14.4329 9.58724 14.4134 9.89648 14.4004 10.2871C14.3809 11.4915 14.3711 12.7025 14.3711 13.9199C14.3711 15.7559 14.4199 17.0124 14.5176 17.6895C14.6738 18.7051 14.9701 19.291 15.4062 19.4473C15.7318 19.6361 16.6042 19.7305 18.0234 19.7305C19.4427 19.7305 20.3151 19.6361 20.6406 19.4473C20.7643 19.4017 20.875 19.3268 20.9727 19.2227C21.0768 19.1185 21.1615 18.9785 21.2266 18.8027C21.2982 18.627 21.36 18.4512 21.4121 18.2754C21.4642 18.0931 21.5065 17.862 21.5391 17.582C21.5716 17.3021 21.5977 17.0514 21.6172 16.8301C21.6367 16.6022 21.6497 16.3158 21.6562 15.9707C21.6628 15.6191 21.666 15.3294 21.666 15.1016C21.6725 14.8737 21.6758 14.571 21.6758 14.1934C21.6758 12.8783 21.666 11.5762 21.6465 10.2871C21.6335 9.89648 21.6107 9.58724 21.5781 9.35938C21.5521 9.13151 21.4902 8.91016 21.3926 8.69531C21.3014 8.47396 21.181 8.3112 21.0312 8.20703C20.8815 8.10286 20.6667 8.00846 20.3867 7.92383C20.1133 7.83919 19.791 7.78385 19.4199 7.75781ZM28.6191 21H26.6367V6.44922H28.6191V21ZM42.6621 21H40.6016L33.668 9.50586V21H31.9297V6.44922H33.9316L40.9238 18.0996V6.44922H42.6621V21ZM45.582 15.7461V14.3887H51.3145V15.7461H45.582ZM56.2363 21H54.2539V6.44922H56.2363V21ZM67.457 7.95312H63.6582V21H61.6758V7.95312H57.9551V6.44922H67.457V7.95312Z" fill="#006A3A"/>
<path d="M8.97266 32.5781C8.97266 32.9349 8.97005 33.2292 8.96484 33.4609C8.96224 33.6901 8.95052 33.9258 8.92969 34.168C8.90885 34.4076 8.88672 34.5977 8.86328 34.7383C8.83984 34.8789 8.79557 35.0234 8.73047 35.1719C8.66797 35.3177 8.60547 35.4271 8.54297 35.5C8.48307 35.5703 8.39062 35.6432 8.26562 35.7188C8.14062 35.7943 8.01823 35.8451 7.89844 35.8711C7.77865 35.8971 7.61589 35.9232 7.41016 35.9492C7.20703 35.9753 7.00651 35.9909 6.80859 35.9961C6.61328 35.9987 6.36458 36 6.0625 36H4.64844V30.1797H6.66406C6.99219 30.1797 7.26953 30.194 7.49609 30.2227C7.72266 30.2487 7.92448 30.2995 8.10156 30.375C8.28125 30.4479 8.42448 30.5404 8.53125 30.6523C8.63802 30.7643 8.72526 30.9141 8.79297 31.1016C8.86328 31.2865 8.91016 31.4948 8.93359 31.7266C8.95964 31.9583 8.97266 32.2422 8.97266 32.5781ZM8.1875 32.5898C8.1875 32.3503 8.1862 32.1784 8.18359 32.0742C8.18359 31.9674 8.17448 31.8346 8.15625 31.6758C8.14062 31.5169 8.11719 31.4089 8.08594 31.3516C8.05729 31.2917 8.01042 31.2161 7.94531 31.125C7.88021 31.0339 7.80339 30.9766 7.71484 30.9531C7.62891 30.9271 7.51432 30.8958 7.37109 30.8594C7.23047 30.8203 7.07292 30.7982 6.89844 30.793C6.72396 30.7852 6.51172 30.7812 6.26172 30.7812H5.44141V35.4023H6.37891C6.60286 35.4023 6.77734 35.401 6.90234 35.3984C7.02734 35.3932 7.16276 35.3815 7.30859 35.3633C7.45443 35.3451 7.5612 35.3216 7.62891 35.293C7.69922 35.2617 7.77474 35.2148 7.85547 35.1523C7.9362 35.0872 7.99219 35.0143 8.02344 34.9336C8.05469 34.8503 8.08594 34.7422 8.11719 34.6094C8.14844 34.474 8.16797 34.3255 8.17578 34.1641C8.18359 34.0026 8.1875 33.8073 8.1875 33.5781V32.5898ZM27.4375 36H24.1406V30.1797H27.4023L27.4805 30.7812H24.9336V32.6523H27.1094V33.2852H24.9336V35.4023H27.5156L27.4375 36ZM42.293 36L42.582 30.1445H43.4414L45.1211 34.7266L46.7695 30.1445H47.6289L47.9375 36H47.1641L46.9609 31.3086L45.3438 36H44.8906L43.1953 31.3438L43.0234 36H42.293ZM65.1562 36.0938C64.9297 36.0938 64.7279 36.0885 64.5508 36.0781C64.3763 36.0677 64.2148 36.0417 64.0664 36C63.918 35.9609 63.7904 35.9245 63.6836 35.8906C63.5794 35.8568 63.4844 35.793 63.3984 35.6992C63.3151 35.6029 63.2461 35.5208 63.1914 35.4531C63.1367 35.3828 63.0898 35.2682 63.0508 35.1094C63.0117 34.9479 62.9831 34.8112 62.9648 34.6992C62.9466 34.5846 62.931 34.4089 62.918 34.1719C62.9076 33.9349 62.901 33.7318 62.8984 33.5625C62.8984 33.3932 62.8984 33.1484 62.8984 32.8281C62.8984 32.4427 62.9089 32.1224 62.9297 31.8672C62.9505 31.612 62.9909 31.375 63.0508 31.1562C63.1133 30.9375 63.194 30.7656 63.293 30.6406C63.3945 30.5156 63.5312 30.4089 63.7031 30.3203C63.8776 30.2292 64.0794 30.168 64.3086 30.1367C64.5404 30.1029 64.8229 30.0859 65.1562 30.0859C65.4714 30.0859 65.7409 30.1016 65.9648 30.1328C66.1888 30.1641 66.3867 30.2201 66.5586 30.3008C66.7331 30.3789 66.8724 30.4779 66.9766 30.5977C67.0833 30.7148 67.1706 30.8698 67.2383 31.0625C67.306 31.2552 67.3516 31.4714 67.375 31.7109C67.401 31.9479 67.4141 32.237 67.4141 32.5781C67.4141 33.5417 67.3997 34.1758 67.3711 34.4805C67.3216 35.0013 67.2018 35.3737 67.0117 35.5977C66.8112 35.8372 66.4701 35.9883 65.9883 36.0508C65.7591 36.0794 65.4818 36.0938 65.1562 36.0938ZM65.7148 30.7031C65.5664 30.6927 65.3802 30.6875 65.1562 30.6875C64.9323 30.6875 64.7461 30.6927 64.5977 30.7031C64.4492 30.7135 64.319 30.7357 64.207 30.7695C64.0977 30.8034 64.013 30.8411 63.9531 30.8828C63.8932 30.9245 63.8438 30.9896 63.8047 31.0781C63.7682 31.1641 63.7435 31.2526 63.7305 31.3438C63.7201 31.4349 63.7122 31.5586 63.707 31.7148C63.6992 32.1966 63.6953 32.681 63.6953 33.168C63.6953 33.9023 63.7148 34.4049 63.7539 34.6758C63.8164 35.082 63.9349 35.3164 64.1094 35.3789C64.2396 35.4544 64.5885 35.4922 65.1562 35.4922C65.724 35.4922 66.0729 35.4544 66.2031 35.3789C66.2526 35.3607 66.2969 35.3307 66.3359 35.2891C66.3776 35.2474 66.4115 35.1914 66.4375 35.1211C66.4661 35.0508 66.4909 34.9805 66.5117 34.9102C66.5326 34.8372 66.5495 34.7448 66.5625 34.6328C66.5755 34.5208 66.5859 34.4206 66.5938 34.332C66.6016 34.2409 66.6068 34.1263 66.6094 33.9883C66.612 33.8477 66.6133 33.7318 66.6133 33.6406C66.6159 33.5495 66.6172 33.4284 66.6172 33.2773C66.6172 32.7513 66.6133 32.2305 66.6055 31.7148C66.6003 31.5586 66.5911 31.4349 66.5781 31.3438C66.5677 31.2526 66.543 31.1641 66.5039 31.0781C66.4674 30.9896 66.4193 30.9245 66.3594 30.8828C66.2995 30.8411 66.2135 30.8034 66.1016 30.7695C65.9922 30.7357 65.8633 30.7135 65.7148 30.7031Z" fill="#CDFFE8"/>
</g>
<defs>
<filter id="filter0_d_24_49" x="0" y="0" width="72" height="47" filterUnits="userSpaceOnUse" color-interpolation-filters="sRGB">
<feFlood flood-opacity="0" result="BackgroundImageFix"/>
<feColorMatrix in="SourceAlpha" type="matrix" values="0 0 0 0 0 0 0 0 0 0 0 0 0 0 0 0 0 0 127 0" result="hardAlpha"/>
<feOffset dy="4"/>
<feGaussianBlur stdDeviation="2"/>
<feComposite in2="hardAlpha" operator="out"/>
<feColorMatrix type="matrix" values="0 0 0 0 0 0 0 0 0 0 0 0 0 0 0 0 0 0 0.25 0"/>
<feBlend mode="normal" in2="BackgroundImageFix" result="effect1_dropShadow_24_49"/>
<feBlend mode="normal" in="SourceGraphic" in2="effect1_dropShadow_24_49" result="shape"/>
</filter>
</defs>
</svg>
