<svg xmlns="http://www.w3.org/2000/svg" xmlns:xlink="http://www.w3.org/1999/xlink" width="500" zoomAndPan="magnify" viewBox="0 0 375 374.999991" height="500" preserveAspectRatio="xMidYMid meet" version="1.0"><defs><clipPath id="edc124126c"><path d="M 145.28125 123.230469 L 229.71875 123.230469 L 229.71875 207.664062 L 145.28125 207.664062 Z M 145.28125 123.230469 " clip-rule="nonzero"/></clipPath><clipPath id="21e9e12eed"><path d="M 187.5 123.230469 C 184.726562 123.230469 181.984375 123.5 179.265625 124.042969 C 176.546875 124.582031 173.90625 125.382812 171.34375 126.445312 C 168.785156 127.503906 166.351562 128.804688 164.046875 130.34375 C 161.742188 131.886719 159.609375 133.636719 157.648438 135.59375 C 155.6875 137.554688 153.9375 139.6875 152.398438 141.992188 C 150.859375 144.296875 149.558594 146.730469 148.496094 149.292969 C 147.4375 151.851562 146.636719 154.492188 146.09375 157.210938 C 145.554688 159.929688 145.28125 162.675781 145.28125 165.449219 C 145.28125 168.21875 145.554688 170.964844 146.09375 173.683594 C 146.636719 176.402344 147.4375 179.042969 148.496094 181.601562 C 149.558594 184.164062 150.859375 186.597656 152.398438 188.902344 C 153.9375 191.207031 155.6875 193.339844 157.648438 195.300781 C 159.609375 197.257812 161.742188 199.007812 164.046875 200.550781 C 166.351562 202.089844 168.785156 203.390625 171.34375 204.449219 C 173.90625 205.511719 176.546875 206.3125 179.265625 206.851562 C 181.984375 207.394531 184.726562 207.664062 187.5 207.664062 C 190.273438 207.664062 193.015625 207.394531 195.734375 206.851562 C 198.453125 206.3125 201.09375 205.511719 203.65625 204.449219 C 206.214844 203.390625 208.648438 202.089844 210.953125 200.550781 C 213.257812 199.007812 215.390625 197.257812 217.351562 195.300781 C 219.3125 193.339844 221.0625 191.207031 222.601562 188.902344 C 224.140625 186.597656 225.441406 184.164062 226.503906 181.601562 C 227.5625 179.042969 228.363281 176.402344 228.90625 173.683594 C 229.445312 170.964844 229.71875 168.21875 229.71875 165.449219 C 229.71875 162.675781 229.445312 159.929688 228.90625 157.210938 C 228.363281 154.492188 227.5625 151.851562 226.503906 149.292969 C 225.441406 146.730469 224.140625 144.296875 222.601562 141.992188 C 221.0625 139.6875 219.3125 137.554688 217.351562 135.59375 C 215.390625 133.636719 213.257812 131.886719 210.953125 130.34375 C 208.648438 128.804688 206.214844 127.503906 203.65625 126.445312 C 201.09375 125.382812 198.453125 124.582031 195.734375 124.042969 C 193.015625 123.5 190.273438 123.230469 187.5 123.230469 Z M 187.5 123.230469 " clip-rule="nonzero"/></clipPath><clipPath id="81899abd41"><path d="M 142 139.707031 L 236.722656 139.707031 L 236.722656 191 L 142 191 Z M 142 139.707031 " clip-rule="nonzero"/></clipPath><clipPath id="296b89b21d"><path d="M 138.472656 157 L 143 157 L 143 171 L 138.472656 171 Z M 138.472656 157 " clip-rule="nonzero"/></clipPath></defs><g clip-path="url(#edc124126c)"><g clip-path="url(#21e9e12eed)"><path fill="#004aad" d="M 145.28125 123.230469 L 229.71875 123.230469 L 229.71875 207.664062 L 145.28125 207.664062 Z M 145.28125 123.230469 " fill-opacity="1" fill-rule="nonzero"/></g></g><path fill="#ffffff" d="M 224.695312 140.949219 C 224.417969 140.949219 224.160156 140.96875 223.882812 141.007812 C 223.683594 141.046875 223.484375 141.085938 223.285156 141.148438 L 144.25 159.34375 C 144.25 159.34375 143.355469 160.90625 143.355469 164.226562 C 143.355469 167.542969 144.25 169.699219 144.25 169.699219 L 223.128906 189.398438 C 223.644531 189.578125 224.140625 189.65625 224.675781 189.65625 C 230.570312 189.65625 235.175781 178.945312 235.175781 165.292969 C 235.214844 151.660156 230.589844 140.949219 224.695312 140.949219 Z M 224.695312 140.949219 " fill-opacity="1" fill-rule="nonzero"/><g clip-path="url(#81899abd41)"><path fill="#000000" d="M 233.109375 147.609375 C 230.988281 142.667969 227.988281 139.941406 224.714844 139.941406 C 224.378906 139.941406 224.078125 139.960938 223.800781 140.019531 L 223.742188 140.019531 C 223.523438 140.058594 223.285156 140.101562 223.066406 140.160156 L 144.050781 158.355469 L 143.613281 158.457031 L 143.394531 158.851562 L 143.375 158.871094 C 143.136719 159.324219 142.382812 161.023438 142.382812 164.226562 C 142.382812 167.40625 143.175781 169.738281 143.335938 170.09375 L 143.535156 170.566406 L 152.625 172.839844 L 152.625 178.511719 C 152.625 179.261719 153.160156 179.953125 153.875 180.132812 C 155.601562 180.546875 157.308594 180.980469 159.035156 181.394531 C 160.761719 181.832031 162.488281 182.246094 164.21875 182.660156 C 164.355469 182.699219 164.496094 182.699219 164.632812 182.699219 C 165.566406 182.699219 166.320312 181.949219 166.320312 181.039062 L 166.320312 176.21875 L 222.890625 190.386719 C 223.464844 190.582031 224.078125 190.683594 224.753906 190.683594 C 228.050781 190.683594 231.027344 187.957031 233.152344 183.015625 C 235.15625 178.332031 236.265625 172.050781 236.265625 165.3125 C 236.226562 158.59375 235.136719 152.3125 233.109375 147.609375 Z M 162.925781 178.925781 C 162.074219 178.707031 160.265625 178.273438 158.757812 177.898438 C 157.566406 177.601562 156.457031 177.34375 155.941406 177.207031 L 155.941406 173.671875 L 162.925781 175.410156 Z M 231.304688 181.910156 C 229.5 186.238281 227.15625 188.628906 224.695312 188.628906 C 224.296875 188.628906 223.902344 188.570312 223.464844 188.429688 L 223.386719 188.410156 L 166.003906 174.085938 L 155.523438 171.476562 L 153.695312 171.023438 L 145.082031 168.828125 C 144.824219 167.921875 144.449219 166.28125 144.449219 164.207031 C 144.449219 162.152344 144.804688 160.828125 145.042969 160.214844 L 223.523438 142.15625 L 223.5625 142.15625 L 223.601562 142.136719 C 223.683594 142.113281 223.761719 142.09375 223.839844 142.074219 C 223.902344 142.054688 223.980469 142.035156 224.039062 142.035156 L 224.078125 142.035156 C 224.296875 141.996094 224.496094 141.976562 224.695312 141.976562 C 227.15625 141.976562 229.5 144.367188 231.304688 148.695312 C 233.152344 153.140625 234.164062 159.027344 234.164062 165.292969 C 234.164062 171.554688 233.152344 177.484375 231.304688 181.910156 Z M 231.304688 181.910156 " fill-opacity="1" fill-rule="nonzero"/></g><path fill="#000000" d="M 142.304688 159.363281 C 142.34375 159.285156 142.324219 159.304688 142.304688 159.363281 Z M 142.304688 159.363281 " fill-opacity="1" fill-rule="nonzero"/><g clip-path="url(#296b89b21d)"><path fill="#000000" d="M 141.53125 164.757812 C 141.46875 163.433594 141.53125 162.109375 141.847656 160.828125 C 141.945312 160.410156 142.066406 159.996094 142.203125 159.621094 C 142.246094 159.523438 142.285156 159.425781 142.304688 159.363281 C 142.304688 159.382812 142.285156 159.382812 142.285156 159.402344 C 142.980469 157.941406 140.777344 156.636719 140.082031 158.121094 C 139.167969 160.054688 138.929688 162.289062 138.96875 164.382812 C 139.007812 166.242188 139.1875 168.257812 139.824219 170.035156 C 140.378906 171.574219 142.820312 170.921875 142.304688 169.363281 C 141.769531 167.902344 141.589844 166.300781 141.53125 164.757812 Z M 141.53125 164.757812 " fill-opacity="1" fill-rule="nonzero"/></g><path fill="#004aad" d="M 186.84375 155.984375 C 194.207031 154.285156 201.589844 152.605469 208.976562 150.90625 C 210.007812 150.671875 211.058594 150.414062 212.089844 150.175781 C 213.679688 149.800781 213.023438 147.351562 211.398438 147.726562 C 204.03125 149.425781 196.648438 151.105469 189.265625 152.804688 C 188.234375 153.042969 187.179688 153.296875 186.148438 153.535156 C 184.582031 153.910156 185.238281 156.359375 186.84375 155.984375 Z M 186.84375 155.984375 " fill-opacity="1" fill-rule="nonzero"/><path fill="#004aad" d="M 232.8125 165.390625 C 232.8125 166.101562 232.800781 166.808594 232.769531 167.515625 C 232.742188 168.21875 232.699219 168.921875 232.644531 169.617188 C 232.585938 170.3125 232.515625 171 232.429688 171.675781 C 232.347656 172.355469 232.25 173.023438 232.136719 173.679688 C 232.027344 174.332031 231.902344 174.972656 231.765625 175.601562 C 231.628906 176.226562 231.480469 176.832031 231.316406 177.421875 C 231.15625 178.011719 230.984375 178.582031 230.800781 179.128906 C 230.613281 179.679688 230.421875 180.203125 230.214844 180.703125 C 230.007812 181.207031 229.792969 181.679688 229.570312 182.132812 C 229.34375 182.582031 229.113281 183.003906 228.871094 183.398438 C 228.628906 183.792969 228.378906 184.15625 228.125 184.488281 C 227.867188 184.824219 227.605469 185.128906 227.335938 185.398438 C 227.066406 185.671875 226.792969 185.910156 226.515625 186.113281 C 226.238281 186.320312 225.957031 186.492188 225.671875 186.632812 C 225.386719 186.769531 225.101562 186.875 224.8125 186.941406 C 224.519531 187.011719 224.230469 187.046875 223.941406 187.046875 C 223.648438 187.046875 223.359375 187.011719 223.070312 186.941406 C 222.78125 186.875 222.496094 186.769531 222.210938 186.632812 C 221.925781 186.492188 221.644531 186.320312 221.367188 186.113281 C 221.085938 185.910156 220.8125 185.671875 220.546875 185.398438 C 220.277344 185.128906 220.015625 184.824219 219.757812 184.488281 C 219.503906 184.15625 219.253906 183.792969 219.011719 183.398438 C 218.769531 183.003906 218.535156 182.582031 218.3125 182.132812 C 218.085938 181.679688 217.871094 181.207031 217.667969 180.703125 C 217.460938 180.203125 217.265625 179.679688 217.082031 179.128906 C 216.898438 178.582031 216.726562 178.011719 216.5625 177.421875 C 216.402344 176.832031 216.253906 176.226562 216.117188 175.601562 C 215.980469 174.972656 215.855469 174.332031 215.742188 173.679688 C 215.632812 173.023438 215.535156 172.355469 215.449219 171.675781 C 215.367188 171 215.296875 170.3125 215.238281 169.617188 C 215.183594 168.921875 215.140625 168.21875 215.113281 167.515625 C 215.082031 166.808594 215.070312 166.101562 215.070312 165.390625 C 215.070312 164.683594 215.082031 163.972656 215.113281 163.269531 C 215.140625 162.5625 215.183594 161.863281 215.238281 161.167969 C 215.296875 160.46875 215.367188 159.785156 215.449219 159.105469 C 215.535156 158.425781 215.632812 157.757812 215.742188 157.105469 C 215.855469 156.449219 215.980469 155.808594 216.117188 155.183594 C 216.253906 154.558594 216.402344 153.949219 216.5625 153.359375 C 216.726562 152.769531 216.898438 152.199219 217.082031 151.652344 C 217.265625 151.105469 217.460938 150.578125 217.667969 150.078125 C 217.871094 149.578125 218.085938 149.101562 218.3125 148.652344 C 218.535156 148.199219 218.769531 147.777344 219.011719 147.386719 C 219.253906 146.992188 219.503906 146.625 219.757812 146.292969 C 220.015625 145.957031 220.277344 145.65625 220.546875 145.382812 C 220.8125 145.113281 221.085938 144.875 221.367188 144.667969 C 221.644531 144.460938 221.925781 144.289062 222.210938 144.152344 C 222.496094 144.011719 222.78125 143.910156 223.070312 143.839844 C 223.359375 143.769531 223.648438 143.734375 223.941406 143.734375 C 224.230469 143.734375 224.519531 143.769531 224.8125 143.839844 C 225.101562 143.910156 225.386719 144.011719 225.671875 144.152344 C 225.957031 144.289062 226.238281 144.460938 226.515625 144.667969 C 226.792969 144.875 227.066406 145.113281 227.335938 145.382812 C 227.605469 145.65625 227.867188 145.957031 228.125 146.292969 C 228.378906 146.625 228.628906 146.992188 228.871094 147.386719 C 229.113281 147.777344 229.34375 148.199219 229.570312 148.652344 C 229.792969 149.101562 230.007812 149.578125 230.214844 150.078125 C 230.421875 150.578125 230.613281 151.105469 230.800781 151.652344 C 230.984375 152.199219 231.15625 152.769531 231.316406 153.359375 C 231.480469 153.949219 231.628906 154.558594 231.765625 155.183594 C 231.902344 155.808594 232.027344 156.449219 232.136719 157.105469 C 232.25 157.757812 232.347656 158.425781 232.429688 159.105469 C 232.515625 159.785156 232.585938 160.46875 232.644531 161.167969 C 232.699219 161.863281 232.742188 162.5625 232.769531 163.269531 C 232.800781 163.972656 232.8125 164.683594 232.8125 165.390625 Z M 232.8125 165.390625 " fill-opacity="1" fill-rule="nonzero"/></svg>