<svg width="331" height="113" viewBox="0 0 331 113" fill="none" xmlns="http://www.w3.org/2000/svg">
<path d="M232.661 46.0135H238.307V60.4718C238.307 61.8468 237.958 63.0551 237.265 64.0968C236.583 65.128 235.646 65.9301 234.453 66.5135C233.255 67.0968 231.88 67.3885 230.328 67.3885C228.963 67.3885 227.724 67.1489 226.599 66.6801C225.484 66.2114 224.599 65.4666 223.932 64.451C223.265 63.4405 222.937 62.128 222.953 60.5135H228.682C228.692 61.0447 228.776 61.4874 228.932 61.8468C229.099 62.2114 229.328 62.4822 229.62 62.6593C229.911 62.8416 230.271 62.9301 230.703 62.9301C231.12 62.9301 231.474 62.8416 231.765 62.6593C232.057 62.4822 232.276 62.2114 232.432 61.8468C232.583 61.4718 232.661 61.0135 232.661 60.4718V46.0135Z" fill="black"/>
<path d="M263.496 56.5551C263.496 58.9041 263.038 60.8832 262.121 62.4926C261.204 64.1072 259.965 65.326 258.413 66.1593C256.871 66.9822 255.147 67.3885 253.246 67.3885C251.314 67.3885 249.569 66.9718 248.017 66.1385C246.475 65.3051 245.246 64.0864 244.329 62.4718C243.423 60.8624 242.975 58.8885 242.975 56.5551C242.975 54.2114 243.423 52.2322 244.329 50.6176C245.246 49.0082 246.475 47.7947 248.017 46.9718C249.569 46.1385 251.314 45.7218 253.246 45.7218C255.147 45.7218 256.871 46.1385 258.413 46.9718C259.965 47.7947 261.204 49.0082 262.121 50.6176C263.038 52.2322 263.496 54.2114 263.496 56.5551ZM257.6 56.5551C257.6 55.2947 257.434 54.2322 257.1 53.3676C256.767 52.4926 256.272 51.8364 255.621 51.3885C254.98 50.9301 254.189 50.701 253.246 50.701C252.288 50.701 251.48 50.9301 250.829 51.3885C250.189 51.8364 249.704 52.4926 249.371 53.3676C249.038 54.2322 248.871 55.2947 248.871 56.5551C248.871 57.8207 249.038 58.8885 249.371 59.7635C249.704 60.628 250.189 61.2843 250.829 61.7426C251.48 62.1905 252.288 62.4093 253.246 62.4093C254.189 62.4093 254.98 62.1905 255.621 61.7426C256.272 61.2843 256.767 60.628 257.1 59.7635C257.434 58.8885 257.6 57.8207 257.6 56.5551Z" fill="black"/>
<path d="M273.887 46.0135V67.0968H268.158V46.0135H273.887Z" fill="black"/>
<path d="M296.883 46.0135V67.0968H292.112L284.487 56.0135H284.362V67.0968H278.633V46.0135H283.508L290.987 57.0551H291.154V46.0135H296.883Z" fill="black"/>
<path d="M307.361 46.0135V67.0968H301.631V46.0135H307.361Z" fill="black"/>
<path d="M311.545 50.6176V46.0135H329.857V50.6176H323.524V67.0968H317.878V50.6176H311.545Z" fill="black"/>
<path d="M140.275 75.9661V84.7578H139.213V75.9661H140.275Z" fill="black"/>
<path d="M152.285 75.9661V84.7578H151.244L146.452 77.862H146.369V84.7578H145.306V75.9661H146.348L151.14 82.8828H151.223V75.9661H152.285Z" fill="black"/>
<path d="M162.114 78.1745C162.057 77.7318 161.844 77.3932 161.469 77.1536C161.104 76.9193 160.661 76.7995 160.135 76.7995C159.552 76.7995 159.078 76.9401 158.719 77.2161C158.37 77.4818 158.198 77.8307 158.198 78.2578C158.198 78.5651 158.291 78.8151 158.489 79.0078C158.682 79.2057 158.911 79.3568 159.177 79.4661C159.437 79.5807 159.677 79.664 159.885 79.7161L160.781 79.9453C161.015 80.0182 161.271 80.1068 161.552 80.2161C161.828 80.3151 162.099 80.4557 162.364 80.6328C162.625 80.8151 162.844 81.0495 163.01 81.3411C163.177 81.6224 163.26 81.9609 163.26 82.362C163.26 82.8515 163.135 83.289 162.885 83.6745C162.635 84.0495 162.271 84.3515 161.802 84.5703C161.328 84.789 160.76 84.9036 160.094 84.9036C159.146 84.9036 158.396 84.6849 157.844 84.237C157.286 83.7943 156.979 83.2109 156.927 82.487H158.031C158.057 82.8203 158.166 83.1015 158.364 83.3203C158.557 83.5286 158.802 83.6901 159.094 83.7995C159.396 83.8984 159.729 83.9453 160.094 83.9453C160.495 83.9453 160.854 83.8828 161.177 83.7578C161.495 83.6224 161.75 83.4349 161.948 83.1953C162.14 82.9609 162.239 82.6849 162.239 82.362C162.239 82.0703 162.156 81.8359 161.989 81.6536C161.823 81.4609 161.604 81.3099 161.344 81.1953C161.078 81.0859 160.786 80.987 160.469 80.9036L159.406 80.5911C158.708 80.3984 158.161 80.1224 157.76 79.7578C157.354 79.3828 157.156 78.8984 157.156 78.2995C157.156 77.8151 157.286 77.3932 157.552 77.0286C157.828 76.6536 158.187 76.362 158.635 76.1536C159.094 75.9453 159.604 75.8411 160.177 75.8411C160.729 75.8411 161.229 75.9453 161.677 76.1536C162.12 76.3515 162.469 76.6276 162.719 76.987C162.979 77.3359 163.12 77.7318 163.135 78.1745H162.114Z" fill="black"/>
<path d="M167.908 84.7578V75.9661H170.887C171.564 75.9661 172.121 76.0911 172.554 76.3411C172.996 76.5911 173.324 76.9245 173.533 77.3411C173.752 77.7578 173.866 78.2318 173.866 78.7578C173.866 79.2734 173.762 79.7474 173.554 80.1745C173.345 80.5911 173.017 80.9245 172.574 81.1745C172.142 81.4245 171.58 81.5495 170.887 81.5495H168.97V84.7578H167.908ZM168.97 80.612H170.866C171.574 80.612 172.074 80.4401 172.366 80.0911C172.668 79.7318 172.824 79.289 172.824 78.7578C172.824 78.2318 172.668 77.7943 172.366 77.4453C172.059 77.0859 171.554 76.9036 170.845 76.9036H168.97V80.612Z" fill="black"/>
<path d="M179.542 75.9661V84.7578H178.479V75.9661H179.542Z" fill="black"/>
<path d="M184.573 84.7578V75.9661H187.552C188.229 75.9661 188.787 76.0859 189.219 76.3203C189.662 76.5599 189.99 76.8776 190.198 77.2786C190.417 77.6849 190.531 78.1484 190.531 78.6745C190.531 79.2578 190.391 79.7682 190.115 80.1953C189.849 80.6276 189.438 80.9401 188.886 81.1328L190.865 84.7578H189.636L187.781 81.3203C187.708 81.3203 187.636 81.3203 187.552 81.3203H185.636V84.7578H184.573ZM185.636 80.362H187.531C188.224 80.362 188.724 80.2109 189.031 79.9036C189.333 79.6015 189.49 79.1901 189.49 78.6745C189.49 78.1328 189.333 77.7057 189.031 77.3828C188.724 77.0651 188.219 76.9036 187.511 76.9036H185.636V80.362Z" fill="black"/>
<path d="M196.259 75.9661V84.7578H195.196V75.9661H196.259Z" fill="black"/>
<path d="M208.269 75.9661V84.7578H207.227L202.436 77.862H202.352V84.7578H201.29V75.9661H202.331L207.123 82.8828H207.206V75.9661H208.269Z" fill="black"/>
<path d="M219.285 78.7161C219.103 78.1328 218.796 77.6745 218.369 77.3411C217.952 77.0078 217.421 76.8411 216.785 76.8411C216.27 76.8411 215.796 76.9818 215.369 77.2578C214.936 77.5234 214.598 77.9193 214.348 78.4453C214.098 78.9609 213.973 79.6015 213.973 80.362C213.973 81.1276 214.098 81.7734 214.348 82.2995C214.608 82.8151 214.957 83.2109 215.39 83.487C215.817 83.7526 216.306 83.8828 216.848 83.8828C217.348 83.8828 217.785 83.7786 218.16 83.5703C218.546 83.362 218.848 83.0651 219.056 82.6745C219.275 82.289 219.395 81.8307 219.41 81.2995H217.098V80.362H220.452V81.2995C220.452 82.039 220.291 82.6745 219.973 83.2161C219.666 83.7474 219.244 84.1536 218.702 84.4453C218.171 84.737 217.556 84.8828 216.848 84.8828C216.067 84.8828 215.39 84.7057 214.806 84.3411C214.223 83.9661 213.765 83.4453 213.431 82.7786C213.108 82.1015 212.952 81.2943 212.952 80.362C212.952 79.4349 213.108 78.6328 213.431 77.9661C213.765 77.289 214.213 76.7682 214.785 76.4036C215.369 76.0286 216.035 75.8411 216.785 75.8411C217.41 75.8411 217.973 75.9661 218.473 76.2161C218.973 76.4557 219.39 76.789 219.723 77.2161C220.056 77.6484 220.275 78.1484 220.39 78.7161H219.285Z" fill="black"/>
<path d="M238.544 78.7161H237.461C237.377 78.3151 237.211 77.9765 236.961 77.6953C236.721 77.4193 236.429 77.2109 236.086 77.0703C235.752 76.9193 235.388 76.8411 235.002 76.8411C234.461 76.8411 233.971 76.9818 233.544 77.2578C233.112 77.5234 232.773 77.9193 232.523 78.4453C232.273 78.9609 232.148 79.6015 232.148 80.362C232.148 81.1276 232.273 81.7734 232.523 82.2995C232.773 82.8151 233.112 83.2109 233.544 83.487C233.971 83.7526 234.461 83.8828 235.002 83.8828C235.388 83.8828 235.752 83.8151 236.086 83.6745C236.429 83.5234 236.721 83.3099 236.961 83.0286C237.211 82.7526 237.377 82.414 237.461 82.0078H238.544C238.429 82.6068 238.2 83.1224 237.856 83.5495C237.523 83.9818 237.106 84.3151 236.606 84.5495C236.117 84.7682 235.586 84.8828 235.002 84.8828C234.252 84.8828 233.586 84.7057 233.002 84.3411C232.419 83.9661 231.961 83.4453 231.627 82.7786C231.294 82.1015 231.127 81.2943 231.127 80.362C231.127 79.4349 231.294 78.6328 231.627 77.9661C231.961 77.289 232.419 76.7682 233.002 76.4036C233.586 76.0286 234.252 75.8411 235.002 75.8411C235.586 75.8411 236.117 75.9609 236.606 76.1953C237.106 76.4193 237.523 76.7474 237.856 77.1745C238.2 77.6068 238.429 78.1224 238.544 78.7161Z" fill="black"/>
<path d="M250.564 80.362C250.564 81.2943 250.397 82.1015 250.064 82.7786C249.731 83.4453 249.272 83.9661 248.689 84.3411C248.106 84.7057 247.439 84.8828 246.689 84.8828C245.939 84.8828 245.272 84.7057 244.689 84.3411C244.106 83.9661 243.647 83.4453 243.314 82.7786C242.981 82.1015 242.814 81.2943 242.814 80.362C242.814 79.4349 242.981 78.6328 243.314 77.9661C243.647 77.289 244.106 76.7682 244.689 76.4036C245.272 76.0286 245.939 75.8411 246.689 75.8411C247.439 75.8411 248.106 76.0286 248.689 76.4036C249.272 76.7682 249.731 77.289 250.064 77.9661C250.397 78.6328 250.564 79.4349 250.564 80.362ZM249.543 80.362C249.543 79.6015 249.408 78.9609 249.147 78.4453C248.897 77.9193 248.554 77.5234 248.126 77.2578C247.694 76.9818 247.215 76.8411 246.689 76.8411C246.147 76.8411 245.658 76.9818 245.231 77.2578C244.798 77.5234 244.46 77.9193 244.21 78.4453C243.96 78.9609 243.835 79.6015 243.835 80.362C243.835 81.1276 243.96 81.7734 244.21 82.2995C244.46 82.8151 244.798 83.2109 245.231 83.487C245.658 83.7526 246.147 83.8828 246.689 83.8828C247.215 83.8828 247.694 83.7526 248.126 83.487C248.554 83.2109 248.897 82.8151 249.147 82.2995C249.408 81.7734 249.543 81.1276 249.543 80.362Z" fill="black"/>
<path d="M255.246 75.9661H256.517L259.496 83.2578H259.6L262.6 75.9661H263.871V84.7578H262.871V78.0911H262.787L260.037 84.7578H259.079L256.329 78.0911H256.246V84.7578H255.246V75.9661Z" fill="black"/>
<path d="M269.163 75.9661H270.434L273.413 83.2578H273.517L276.517 75.9661H277.788V84.7578H276.788V78.0911H276.705L273.955 84.7578H272.996L270.246 78.0911H270.163V84.7578H269.163V75.9661Z" fill="black"/>
<path d="M288.851 75.9661H289.913V81.7786C289.913 82.4453 289.752 83.0182 289.434 83.487C289.127 83.9453 288.715 84.2995 288.205 84.5495C287.689 84.7838 287.122 84.9036 286.497 84.9036C285.882 84.9036 285.314 84.7838 284.788 84.5495C284.273 84.2995 283.856 83.9453 283.538 83.487C283.231 83.0182 283.08 82.4453 283.08 81.7786V75.9661H284.143V81.7786C284.143 82.237 284.247 82.6276 284.455 82.9453C284.674 83.2682 284.965 83.5078 285.33 83.6745C285.689 83.8411 286.08 83.9245 286.497 83.9245C286.913 83.9245 287.299 83.8411 287.663 83.6745C288.023 83.5078 288.309 83.2682 288.518 82.9453C288.736 82.6276 288.851 82.237 288.851 81.7786V75.9661Z" fill="black"/>
<path d="M301.918 75.9661V84.7578H300.876L296.084 77.862H296.001V84.7578H294.938V75.9661H295.98L300.772 82.8828H300.855V75.9661H301.918Z" fill="black"/>
<path d="M307.996 75.9661V84.7578H306.934V75.9661H307.996Z" fill="black"/>
<path d="M312.549 76.9036V75.9661H319.132V76.9036H316.382V84.7578H315.319V76.9036H312.549Z" fill="black"/>
<path d="M322.935 75.9661H324.143L326.581 80.0703H326.685L329.123 75.9661H330.352L327.164 81.1328V84.7578H326.102V81.1328L322.935 75.9661Z" fill="black"/>
<mask id="mask0_14_171" style="mask-type:luminance" maskUnits="userSpaceOnUse" x="8" y="0" width="114" height="113">
<path d="M8.86978 0.307297H121.448V112.885H8.86978V0.307297Z" fill="white"/>
</mask>
<g mask="url(#mask0_14_171)">
<mask id="mask1_14_171" style="mask-type:luminance" maskUnits="userSpaceOnUse" x="8" y="0" width="114" height="113">
<path d="M65.1562 0.307297C61.4635 0.307297 57.8021 0.666671 54.1771 1.39063C50.5521 2.10938 47.0312 3.17709 43.6146 4.59376C40.2031 6.00521 36.9583 7.73959 33.8854 9.79167C30.8125 11.849 27.9687 14.1823 25.3542 16.7917C22.7396 19.4063 20.4062 22.25 18.3542 25.3229C16.3021 28.3958 14.5677 31.6406 13.151 35.0573C11.7396 38.4688 10.6719 41.9896 9.94791 45.6146C9.22916 49.2396 8.86978 52.901 8.86978 56.599C8.86978 60.2917 9.22916 63.9531 9.94791 67.5781C10.6719 71.2031 11.7396 74.724 13.151 78.1354C14.5677 81.5521 16.3021 84.7969 18.3542 87.8698C20.4062 90.9427 22.7396 93.7865 25.3542 96.401C27.9687 99.0104 30.8125 101.344 33.8854 103.401C36.9583 105.453 40.2031 107.188 43.6146 108.599C47.0312 110.016 50.5521 111.083 54.1771 111.802C57.8021 112.526 61.4635 112.885 65.1562 112.885C68.8542 112.885 72.5156 112.526 76.1406 111.802C79.7656 111.083 83.2812 110.016 86.6979 108.599C90.1146 107.188 93.3542 105.453 96.4323 103.401C99.5052 101.344 102.344 99.0104 104.958 96.401C107.573 93.7865 109.906 90.9427 111.958 87.8698C114.016 84.7969 115.745 81.5521 117.161 78.1354C118.578 74.724 119.646 71.2031 120.365 67.5781C121.089 63.9531 121.448 60.2917 121.448 56.599C121.448 52.901 121.089 49.2396 120.365 45.6146C119.646 41.9896 118.578 38.4688 117.161 35.0573C115.745 31.6406 114.016 28.3958 111.958 25.3229C109.906 22.25 107.573 19.4063 104.958 16.7917C102.344 14.1823 99.5052 11.849 96.4323 9.79167C93.3542 7.73959 90.1146 6.00521 86.6979 4.59376C83.2812 3.17709 79.7656 2.10938 76.1406 1.39063C72.5156 0.666671 68.8542 0.307297 65.1562 0.307297Z" fill="white"/>
</mask>
<g mask="url(#mask1_14_171)">
<path d="M8.86978 0.307297H121.448V112.885H8.86978V0.307297Z" fill="#004AAD"/>
</g>
</g>
<path d="M114.75 23.9323C114.38 23.9323 114.036 23.9583 113.667 24.0104C113.401 24.0625 113.135 24.1146 112.87 24.1979L7.48958 48.4583C7.48958 48.4583 6.29688 50.5417 6.29688 54.9688C6.29688 59.3906 7.48958 62.2656 7.48958 62.2656L112.661 88.5313C113.349 88.7708 114.01 88.875 114.724 88.875C122.583 88.875 128.724 74.5938 128.724 56.3906C128.776 38.2135 122.609 23.9323 114.75 23.9323Z" fill="white"/>
<mask id="mask2_14_171" style="mask-type:luminance" maskUnits="userSpaceOnUse" x="4" y="22" width="127" height="69">
<path d="M4.33331 22.276H130.786V90.6667H4.33331V22.276Z" fill="white"/>
</mask>
<g mask="url(#mask2_14_171)">
<path d="M125.974 32.8125C123.141 26.224 119.146 22.5885 114.776 22.5885C114.328 22.5885 113.932 22.6146 113.557 22.6927H113.479C113.187 22.7448 112.87 22.8021 112.578 22.8802L7.22393 47.1406L6.64059 47.276L6.35414 47.8021L6.32289 47.8281C6.00518 48.4323 4.99997 50.6979 4.99997 54.9688C4.99997 59.2083 6.06247 62.3177 6.2708 62.7917L6.53643 63.4219L18.6562 66.4531V74.0156C18.6562 75.0156 19.3698 75.9375 20.3229 76.1771C22.625 76.7292 24.901 77.3073 27.2031 77.8594C29.5104 78.4427 31.8125 78.9948 34.1146 79.5469C34.2968 79.599 34.4843 79.599 34.6666 79.599C35.9114 79.599 36.9166 78.599 36.9166 77.3854V70.9583L112.344 89.849C113.109 90.1094 113.932 90.2448 114.828 90.2448C119.224 90.2448 123.193 86.6094 126.026 80.0208C128.698 73.776 130.177 65.401 130.177 56.4167C130.125 47.4583 128.672 39.0833 125.974 32.8125ZM32.3906 74.5677C31.2552 74.276 28.8489 73.6979 26.8333 73.1979C25.2448 72.8021 23.7656 72.4583 23.0781 72.276V67.5625L32.3906 69.8802V74.5677ZM123.562 78.5469C121.156 84.3177 118.031 87.5052 114.75 87.5052C114.224 87.5052 113.693 87.4271 113.109 87.2396L113.005 87.2135L36.4948 68.1146L22.5208 64.6354L20.0885 64.0313L8.59893 61.1042C8.25518 59.8958 7.75518 57.7083 7.75518 54.9427C7.75518 52.2031 8.22914 50.4375 8.54684 49.6198L113.187 25.5417H113.245L113.297 25.5156C113.401 25.4844 113.505 25.4583 113.615 25.4323C113.693 25.4063 113.797 25.3802 113.875 25.3802H113.932C114.224 25.3281 114.484 25.3021 114.75 25.3021C118.031 25.3021 121.156 28.4896 123.562 34.2604C126.026 40.1875 127.375 48.0365 127.375 56.3906C127.375 64.7396 126.026 72.6458 123.562 78.5469Z" fill="black"/>
</g>
<path d="M4.89581 48.4844C4.9479 48.3802 4.92185 48.4063 4.89581 48.4844Z" fill="black"/>
<path d="M3.86456 55.6771C3.78644 53.9115 3.86456 52.1458 4.28644 50.4375C4.42185 49.8802 4.5781 49.3281 4.7656 48.8281C4.81769 48.6979 4.86977 48.5677 4.89581 48.4844C4.89581 48.5104 4.86977 48.5104 4.86977 48.5365C5.79685 46.5885 2.85935 44.849 1.93227 46.8281C0.713519 49.4062 0.395811 52.3854 0.447895 55.1771C0.505186 57.6563 0.739563 60.3437 1.58852 62.7135C2.3281 64.7656 5.58331 63.8958 4.89581 61.8177C4.18227 59.8698 3.94269 57.7344 3.86456 55.6771Z" fill="black"/>
<path d="M64.2812 43.9792C74.099 41.7135 83.9479 39.474 93.7917 37.2083C95.1667 36.8958 96.5677 36.5521 97.9479 36.2344C100.063 35.7344 99.1875 32.4687 97.0208 32.9687C87.2031 35.2344 77.3542 37.474 67.5104 39.7396C66.1354 40.0573 64.7344 40.3958 63.3542 40.7135C61.2656 41.2135 62.1406 44.4792 64.2812 43.9792Z" fill="#004AAD"/>
<path d="M125.573 56.5208C125.573 57.4688 125.557 58.4115 125.516 59.3542C125.479 60.2917 125.422 61.2292 125.349 62.1563C125.271 63.0833 125.177 64 125.068 64.9011C124.953 65.8073 124.823 66.6979 124.672 67.5729C124.526 68.4427 124.359 69.2969 124.177 70.1354C123.995 70.9688 123.797 71.7761 123.583 72.5625C123.365 73.349 123.135 74.1094 122.891 74.8386C122.646 75.5729 122.385 76.2708 122.109 76.9375C121.839 77.6094 121.547 78.2396 121.25 78.8438C120.948 79.4427 120.641 80.0052 120.318 80.5313C119.995 81.0573 119.661 81.5417 119.323 81.9844C118.979 82.4323 118.63 82.8386 118.271 83.1979C117.917 83.5625 117.552 83.8802 117.177 84.1511C116.807 84.4271 116.432 84.6563 116.052 84.8438C115.672 85.0261 115.292 85.1667 114.906 85.2552C114.521 85.349 114.13 85.3958 113.745 85.3958C113.359 85.3958 112.969 85.349 112.583 85.2552C112.198 85.1667 111.818 85.0261 111.437 84.8438C111.057 84.6563 110.682 84.4271 110.312 84.1511C109.943 83.8802 109.578 83.5625 109.219 83.1979C108.859 82.8386 108.51 82.4323 108.167 81.9844C107.828 81.5417 107.495 81.0573 107.172 80.5313C106.849 80.0052 106.542 79.4427 106.24 78.8438C105.943 78.2396 105.656 77.6094 105.38 76.9375C105.104 76.2708 104.849 75.5729 104.599 74.8386C104.354 74.1094 104.125 73.349 103.911 72.5625C103.693 71.7761 103.495 70.9688 103.312 70.1354C103.13 69.2969 102.964 68.4427 102.818 67.5729C102.667 66.6979 102.536 65.8073 102.427 64.9011C102.312 64 102.219 63.0833 102.141 62.1563C102.068 61.2292 102.01 60.2917 101.974 59.3542C101.932 58.4115 101.917 57.4688 101.917 56.5208C101.917 55.5781 101.932 54.6302 101.974 53.6927C102.01 52.75 102.068 51.8177 102.141 50.8906C102.219 49.9583 102.312 49.0469 102.427 48.1406C102.536 47.2344 102.667 46.3438 102.818 45.474C102.964 44.599 103.13 43.7448 103.312 42.9115C103.495 42.0781 103.693 41.2656 103.911 40.4792C104.125 39.6927 104.354 38.9323 104.599 38.2031C104.849 37.474 105.104 36.7708 105.38 36.1042C105.656 35.4375 105.943 34.8021 106.24 34.2031C106.542 33.599 106.849 33.0365 107.172 32.5156C107.495 31.9896 107.828 31.5 108.167 31.0573C108.51 30.6094 108.859 30.2083 109.219 29.8438C109.578 29.4844 109.943 29.1667 110.312 28.8906C110.682 28.6146 111.057 28.3854 111.437 28.2031C111.818 28.0156 112.198 27.8802 112.583 27.7865C112.969 27.6927 113.359 27.6458 113.745 27.6458C114.13 27.6458 114.521 27.6927 114.906 27.7865C115.292 27.8802 115.672 28.0156 116.052 28.2031C116.432 28.3854 116.807 28.6146 117.177 28.8906C117.552 29.1667 117.917 29.4844 118.271 29.8438C118.63 30.2083 118.979 30.6094 119.323 31.0573C119.661 31.5 119.995 31.9896 120.318 32.5156C120.641 33.0365 120.948 33.599 121.25 34.2031C121.547 34.8021 121.839 35.4375 122.109 36.1042C122.385 36.7708 122.646 37.474 122.891 38.2031C123.135 38.9323 123.365 39.6927 123.583 40.4792C123.797 41.2656 123.995 42.0781 124.177 42.9115C124.359 43.7448 124.526 44.599 124.672 45.474C124.823 46.3438 124.953 47.2344 125.068 48.1406C125.177 49.0469 125.271 49.9583 125.349 50.8906C125.422 51.8177 125.479 52.75 125.516 53.6927C125.557 54.6302 125.573 55.5781 125.573 56.5208Z" fill="#004AAD"/>
</svg>
