<svg width="132" height="113" viewBox="0 0 132 113" fill="none" xmlns="http://www.w3.org/2000/svg">
<mask id="mask0_14_169" style="mask-type:luminance" maskUnits="userSpaceOnUse" x="9" y="0" width="114" height="113">
<path d="M9.70833 0.307297H122.292V112.885H9.70833V0.307297Z" fill="white"/>
</mask>
<g mask="url(#mask0_14_169)">
<mask id="mask1_14_169" style="mask-type:luminance" maskUnits="userSpaceOnUse" x="9" y="0" width="114" height="113">
<path d="M66 0.307297C62.3021 0.307297 58.6458 0.666671 55.0208 1.39063C51.3958 2.10938 47.875 3.17709 44.4583 4.59376C41.0469 6.00521 37.8021 7.73959 34.7292 9.79167C31.6562 11.849 28.8125 14.1823 26.1979 16.7917C23.5833 19.4063 21.25 22.25 19.1979 25.3229C17.1458 28.3958 15.4115 31.6406 13.9948 35.0573C12.5833 38.4688 11.5156 41.9896 10.7917 45.6146C10.0729 49.2396 9.70833 52.901 9.70833 56.599C9.70833 60.2917 10.0729 63.9531 10.7917 67.5781C11.5156 71.2031 12.5833 74.724 13.9948 78.1354C15.4115 81.5521 17.1458 84.7969 19.1979 87.8698C21.25 90.9427 23.5833 93.7865 26.1979 96.401C28.8125 99.0104 31.6562 101.344 34.7292 103.401C37.8021 105.453 41.0469 107.188 44.4583 108.599C47.875 110.016 51.3958 111.083 55.0208 111.802C58.6458 112.526 62.3021 112.885 66 112.885C69.6979 112.885 73.3542 112.526 76.9792 111.802C80.6042 111.083 84.125 110.016 87.5417 108.599C90.9531 107.188 94.1979 105.453 97.2708 103.401C100.344 101.344 103.187 99.0104 105.802 96.401C108.417 93.7865 110.75 90.9427 112.802 87.8698C114.854 84.7969 116.589 81.5521 118.005 78.1354C119.417 74.724 120.484 71.2031 121.208 67.5781C121.927 63.9531 122.292 60.2917 122.292 56.599C122.292 52.901 121.927 49.2396 121.208 45.6146C120.484 41.9896 119.417 38.4688 118.005 35.0573C116.589 31.6406 114.854 28.3958 112.802 25.3229C110.75 22.25 108.417 19.4063 105.802 16.7917C103.187 14.1823 100.344 11.849 97.2708 9.79167C94.1979 7.73959 90.9531 6.00521 87.5417 4.59376C84.125 3.17709 80.6042 2.10938 76.9792 1.39063C73.3542 0.666671 69.6979 0.307297 66 0.307297Z" fill="white"/>
</mask>
<g mask="url(#mask1_14_169)">
<path d="M9.70833 0.307297H122.292V112.885H9.70833V0.307297Z" fill="#004AAD"/>
</g>
</g>
<path d="M115.594 23.9323C115.224 23.9323 114.88 23.9583 114.51 24.0104C114.245 24.0625 113.979 24.1146 113.714 24.1979L8.33333 48.4583C8.33333 48.4583 7.14062 50.5417 7.14062 54.9688C7.14062 59.3906 8.33333 62.2656 8.33333 62.2656L113.505 88.5313C114.193 88.7708 114.854 88.875 115.568 88.875C123.427 88.875 129.568 74.5938 129.568 56.3906C129.62 38.2135 123.453 23.9323 115.594 23.9323Z" fill="white"/>
<mask id="mask2_14_169" style="mask-type:luminance" maskUnits="userSpaceOnUse" x="5" y="22" width="127" height="69">
<path d="M5.33333 22.276H131.63V90.6667H5.33333V22.276Z" fill="white"/>
</mask>
<g mask="url(#mask2_14_169)">
<path d="M126.813 32.8125C123.984 26.224 119.984 22.5885 115.62 22.5885C115.172 22.5885 114.771 22.6146 114.401 22.6927H114.323C114.031 22.7448 113.714 22.8021 113.422 22.8802L8.06771 47.1406L7.48438 47.276L7.19271 47.8021L7.16667 47.8281C6.84896 48.4323 5.84375 50.6979 5.84375 54.9688C5.84375 59.2083 6.90104 62.3177 7.11458 62.7917L7.38021 63.4219L19.5 66.4531V74.0156C19.5 75.0156 20.2135 75.9375 21.1667 76.1771C23.4687 76.7292 25.7448 77.3073 28.0469 77.8594C30.349 78.4427 32.651 78.9948 34.9583 79.5469C35.1406 79.599 35.3281 79.599 35.5104 79.599C36.7552 79.599 37.7604 78.599 37.7604 77.3854V70.9583L113.188 89.849C113.953 90.1094 114.771 90.2448 115.672 90.2448C120.068 90.2448 124.036 86.6094 126.87 80.0208C129.542 73.776 131.021 65.401 131.021 56.4167C130.969 47.4583 129.516 39.0833 126.813 32.8125ZM33.2344 74.5677C32.099 74.276 29.6875 73.6979 27.6771 73.1979C26.0885 72.8021 24.6094 72.4583 23.9219 72.276V67.5625L33.2344 69.8802V74.5677ZM124.406 78.5469C122 84.3177 118.875 87.5052 115.594 87.5052C115.063 87.5052 114.536 87.4271 113.953 87.2396L113.849 87.2135L37.3385 68.1146L23.3646 64.6354L20.9271 64.0313L9.44271 61.1042C9.09896 59.8958 8.59896 57.7083 8.59896 54.9427C8.59896 52.2031 9.07292 50.4375 9.39063 49.6198L114.031 25.5417H114.083L114.135 25.5156C114.245 25.4844 114.349 25.4583 114.453 25.4323C114.536 25.4063 114.641 25.3802 114.719 25.3802H114.771C115.063 25.3281 115.328 25.3021 115.594 25.3021C118.875 25.3021 122 28.4896 124.406 34.2604C126.87 40.1875 128.219 48.0365 128.219 56.3906C128.219 64.7396 126.87 72.6458 124.406 78.5469Z" fill="black"/>
</g>
<path d="M5.73958 48.4844C5.79166 48.3802 5.76562 48.4063 5.73958 48.4844Z" fill="black"/>
<mask id="mask3_14_169" style="mask-type:luminance" maskUnits="userSpaceOnUse" x="0" y="45" width="7" height="19">
<path d="M0.630203 45.3333H6.66666V64H0.630203V45.3333Z" fill="white"/>
</mask>
<g mask="url(#mask3_14_169)">
<path d="M4.70833 55.6771C4.62499 53.9115 4.70833 52.1458 5.1302 50.4375C5.26041 49.8802 5.42187 49.3281 5.60416 48.8281C5.66145 48.6979 5.71353 48.5677 5.73958 48.4844C5.73958 48.5104 5.71354 48.5104 5.71354 48.5365C6.64062 46.5885 3.70312 44.849 2.77604 46.8281C1.55729 49.4062 1.23958 52.3854 1.29166 55.1771C1.34374 57.6563 1.58333 60.3437 2.43229 62.7135C3.17187 64.7656 6.42708 63.8958 5.73958 61.8177C5.02603 59.8698 4.78645 57.7344 4.70833 55.6771Z" fill="black"/>
</g>
<path d="M65.125 43.9792C74.9427 41.7135 84.7864 39.474 94.6354 37.2083C96.0104 36.8958 97.4114 36.5521 98.7864 36.2344C100.906 35.7344 100.031 32.4687 97.8646 32.9687C88.0417 35.2344 78.1979 37.474 68.3542 39.7396C66.9792 40.0573 65.5729 40.3958 64.1979 40.7135C62.1094 41.2135 62.9844 44.4792 65.125 43.9792Z" fill="#004AAD"/>
<path d="M126.417 56.5208C126.417 57.4688 126.401 58.4115 126.359 59.3542C126.323 60.2917 126.266 61.2292 126.193 62.1563C126.115 63.0833 126.021 64 125.906 64.9011C125.797 65.8073 125.667 66.6979 125.516 67.5729C125.37 68.4427 125.203 69.2969 125.021 70.1354C124.839 70.9688 124.641 71.7761 124.422 72.5625C124.208 73.349 123.979 74.1094 123.734 74.8386C123.484 75.5729 123.229 76.2708 122.953 76.9375C122.677 77.6094 122.391 78.2396 122.094 78.8438C121.792 79.4427 121.484 80.0052 121.161 80.5313C120.839 81.0573 120.505 81.5417 120.167 81.9844C119.823 82.4323 119.474 82.8386 119.115 83.1979C118.755 83.5625 118.391 83.8802 118.021 84.1511C117.651 84.4271 117.276 84.6563 116.896 84.8438C116.516 85.0261 116.135 85.1667 115.75 85.2552C115.359 85.349 114.974 85.3958 114.589 85.3958C114.198 85.3958 113.812 85.349 113.427 85.2552C113.042 85.1667 112.661 85.0261 112.281 84.8438C111.901 84.6563 111.526 84.4271 111.156 84.1511C110.781 83.8802 110.417 83.5625 110.062 83.1979C109.703 82.8386 109.354 82.4323 109.01 81.9844C108.672 81.5417 108.339 81.0573 108.016 80.5313C107.693 80.0052 107.38 79.4427 107.083 78.8438C106.781 78.2396 106.495 77.6094 106.224 76.9375C105.948 76.2708 105.687 75.5729 105.443 74.8386C105.198 74.1094 104.969 73.349 104.75 72.5625C104.536 71.7761 104.339 70.9688 104.156 70.1354C103.974 69.2969 103.807 68.4427 103.656 67.5729C103.51 66.6979 103.38 65.8073 103.266 64.9011C103.156 64 103.062 63.0833 102.984 62.1563C102.911 61.2292 102.854 60.2917 102.818 59.3542C102.776 58.4115 102.76 57.4688 102.76 56.5208C102.76 55.5781 102.776 54.6302 102.818 53.6927C102.854 52.75 102.911 51.8177 102.984 50.8906C103.062 49.9583 103.156 49.0469 103.266 48.1406C103.38 47.2344 103.51 46.3438 103.656 45.474C103.807 44.599 103.974 43.7448 104.156 42.9115C104.339 42.0781 104.536 41.2656 104.75 40.4792C104.969 39.6927 105.198 38.9323 105.443 38.2031C105.687 37.474 105.948 36.7708 106.224 36.1042C106.495 35.4375 106.781 34.8021 107.083 34.2031C107.38 33.599 107.693 33.0365 108.016 32.5156C108.339 31.9896 108.672 31.5 109.01 31.0573C109.354 30.6094 109.703 30.2083 110.062 29.8438C110.417 29.4844 110.781 29.1667 111.156 28.8906C111.526 28.6146 111.901 28.3854 112.281 28.2031C112.661 28.0156 113.042 27.8802 113.427 27.7865C113.812 27.6927 114.198 27.6458 114.589 27.6458C114.974 27.6458 115.359 27.6927 115.75 27.7865C116.135 27.8802 116.516 28.0156 116.896 28.2031C117.276 28.3854 117.651 28.6146 118.021 28.8906C118.391 29.1667 118.755 29.4844 119.115 29.8438C119.474 30.2083 119.823 30.6094 120.167 31.0573C120.505 31.5 120.839 31.9896 121.161 32.5156C121.484 33.0365 121.792 33.599 122.094 34.2031C122.391 34.8021 122.677 35.4375 122.953 36.1042C123.229 36.7708 123.484 37.474 123.734 38.2031C123.979 38.9323 124.208 39.6927 124.422 40.4792C124.641 41.2656 124.839 42.0781 125.021 42.9115C125.203 43.7448 125.37 44.599 125.516 45.474C125.667 46.3438 125.797 47.2344 125.906 48.1406C126.021 49.0469 126.115 49.9583 126.193 50.8906C126.266 51.8177 126.323 52.75 126.359 53.6927C126.401 54.6302 126.417 55.5781 126.417 56.5208Z" fill="#004AAD"/>
</svg>
