<svg width="150" height="150" viewBox="0 0 150 150" fill="none" xmlns="http://www.w3.org/2000/svg">
<mask id="mask0_14_170" style="mask-type:luminance" maskUnits="userSpaceOnUse" x="0" y="0" width="150" height="150">
<path d="M0 0H150V150H0V0Z" fill="white"/>
</mask>
<g mask="url(#mask0_14_170)">
<mask id="mask1_14_170" style="mask-type:luminance" maskUnits="userSpaceOnUse" x="0" y="0" width="150" height="150">
<path d="M23 0H127C133.099 0 138.948 2.42188 143.266 6.73438C147.578 11.0521 150 16.901 150 23V127C150 133.099 147.578 138.948 143.266 143.266C138.948 147.578 133.099 150 127 150H23C16.901 150 11.0521 147.578 6.73438 143.266C2.42188 138.948 0 133.099 0 127V23C0 16.901 2.42188 11.0521 6.73438 6.73438C11.0521 2.42188 16.901 0 23 0Z" fill="white"/>
</mask>
<g mask="url(#mask1_14_170)">
<path d="M0 0H150V150H0V0Z" fill="#004AAD"/>
</g>
</g>
<path d="M124.594 42.3333C124.224 42.3333 123.88 42.3594 123.51 42.4167C123.245 42.4688 122.979 42.5208 122.714 42.599L17.3333 66.8646C17.3333 66.8646 16.1406 68.9427 16.1406 73.3698C16.1406 77.7969 17.3333 80.6667 17.3333 80.6667L122.505 106.932C123.193 107.172 123.854 107.276 124.568 107.276C132.427 107.276 138.568 93 138.568 74.7917C138.62 56.6146 132.453 42.3333 124.594 42.3333Z" fill="white"/>
<mask id="mask2_14_170" style="mask-type:luminance" maskUnits="userSpaceOnUse" x="14" y="40" width="127" height="69">
<path d="M14.3333 40.6823H140.63V109H14.3333V40.6823Z" fill="white"/>
</mask>
<g mask="url(#mask2_14_170)">
<path d="M135.813 51.2136C132.984 44.6302 128.984 40.9896 124.62 40.9896C124.172 40.9896 123.771 41.0208 123.401 41.099H123.323C123.031 41.1511 122.714 41.2031 122.422 41.2813L17.0677 65.5469L16.4844 65.6771L16.1927 66.2031L16.1667 66.2292C15.849 66.8386 14.8438 69.1042 14.8438 73.3698C14.8438 77.6146 15.901 80.7188 16.1146 81.1927L16.3802 81.8281L28.5 84.8594V92.4167C28.5 93.4167 29.2135 94.3438 30.1667 94.5781C32.4687 95.1302 34.7448 95.7136 37.0469 96.2656C39.349 96.8438 41.651 97.3958 43.9583 97.9531C44.1406 98.0052 44.3281 98.0052 44.5104 98.0052C45.7552 98.0052 46.7604 97 46.7604 95.7917V89.3646L122.188 108.25C122.953 108.516 123.771 108.646 124.672 108.646C129.068 108.646 133.036 105.01 135.87 98.4271C138.542 92.1823 140.021 83.8021 140.021 74.8177C139.969 65.8646 138.516 57.4844 135.813 51.2136ZM42.2344 92.974C41.099 92.6823 38.6875 92.1042 36.6771 91.599C35.0885 91.2083 33.6094 90.8646 32.9219 90.6771V85.9636L42.2344 88.2813V92.974ZM133.406 96.9479C131 102.719 127.875 105.906 124.594 105.906C124.063 105.906 123.536 105.828 122.953 105.646L122.849 105.615L46.3385 86.5156L32.3646 83.0417L29.9271 82.4323L18.4427 79.5104C18.099 78.2969 17.599 76.1094 17.599 73.3438C17.599 70.6042 18.0729 68.8386 18.3906 68.0208L123.031 43.9427H123.083L123.135 43.9167C123.245 43.8906 123.349 43.8646 123.453 43.8386C123.536 43.8125 123.641 43.7865 123.719 43.7865H123.771C124.063 43.7344 124.328 43.7031 124.594 43.7031C127.875 43.7031 131 46.8958 133.406 52.6615C135.87 58.5886 137.219 66.4427 137.219 74.7917C137.219 83.1458 135.87 91.0469 133.406 96.9479Z" fill="black"/>
</g>
<path d="M14.7396 66.8906C14.7916 66.7865 14.7656 66.8125 14.7396 66.8906Z" fill="black"/>
<mask id="mask3_14_170" style="mask-type:luminance" maskUnits="userSpaceOnUse" x="9" y="63" width="7" height="20">
<path d="M9.63019 63.6667H15.6666V82.3333H9.63019V63.6667Z" fill="white"/>
</mask>
<g mask="url(#mask3_14_170)">
<path d="M13.7083 74.0833C13.625 72.3177 13.7083 70.5521 14.1302 68.8385C14.2604 68.2865 14.4219 67.7344 14.6041 67.2344C14.6614 67.099 14.7135 66.9688 14.7396 66.8906C14.7396 66.9167 14.7135 66.9167 14.7135 66.9427C15.6406 64.9948 12.7031 63.2552 11.776 65.2292C10.5573 67.8125 10.2396 70.7865 10.2916 73.5833C10.3437 76.0573 10.5833 78.7448 11.4323 81.1146C12.1719 83.1719 15.4271 82.3021 14.7396 80.2188C14.026 78.2708 13.7864 76.1354 13.7083 74.0833Z" fill="black"/>
</g>
<path d="M74.125 62.3854C83.9427 60.1198 93.7864 57.8802 103.635 55.6146C105.01 55.2969 106.411 54.9531 107.786 54.6406C109.906 54.1406 109.031 50.8698 106.865 51.3698C97.0416 53.6354 87.1979 55.875 77.3541 58.1406C75.9791 58.4583 74.5729 58.8021 73.1979 59.1198C71.1093 59.6198 71.9843 62.8854 74.125 62.3854Z" fill="#004AAD"/>
<path d="M135.417 74.9271C135.417 75.8698 135.401 76.8125 135.359 77.7552C135.323 78.6979 135.266 79.6302 135.193 80.5573C135.115 81.4844 135.021 82.4011 134.906 83.3073C134.797 84.2136 134.667 85.099 134.516 85.974C134.37 86.849 134.203 87.7031 134.021 88.5365C133.839 89.3698 133.641 90.1823 133.422 90.9688C133.208 91.7552 132.979 92.5104 132.734 93.2448C132.484 93.974 132.229 94.6719 131.953 95.3438C131.677 96.0104 131.391 96.6458 131.094 97.2448C130.792 97.8438 130.484 98.4063 130.161 98.9323C129.839 99.4583 129.505 99.9427 129.167 100.391C128.823 100.833 128.474 101.24 128.115 101.599C127.755 101.964 127.391 102.281 127.021 102.557C126.651 102.828 126.276 103.063 125.896 103.245C125.516 103.427 125.135 103.568 124.75 103.661C124.359 103.755 123.974 103.797 123.589 103.797C123.198 103.797 122.812 103.755 122.427 103.661C122.042 103.568 121.661 103.427 121.281 103.245C120.901 103.063 120.526 102.828 120.156 102.557C119.781 102.281 119.417 101.964 119.062 101.599C118.703 101.24 118.354 100.833 118.01 100.391C117.672 99.9427 117.339 99.4583 117.016 98.9323C116.693 98.4063 116.38 97.8438 116.083 97.2448C115.781 96.6458 115.495 96.0104 115.224 95.3438C114.948 94.6719 114.687 93.974 114.443 93.2448C114.198 92.5104 113.969 91.7552 113.75 90.9688C113.536 90.1823 113.339 89.3698 113.156 88.5365C112.974 87.7031 112.807 86.849 112.656 85.974C112.51 85.099 112.38 84.2136 112.266 83.3073C112.156 82.4011 112.062 81.4844 111.984 80.5573C111.911 79.6302 111.854 78.6979 111.818 77.7552C111.776 76.8125 111.76 75.8698 111.76 74.9271C111.76 73.9792 111.776 73.0365 111.818 72.0938C111.854 71.1511 111.911 70.2188 111.984 69.2917C112.062 68.3646 112.156 67.4479 112.266 66.5417C112.38 65.6354 112.51 64.75 112.656 63.875C112.807 63 112.974 62.1458 113.156 61.3125C113.339 60.4792 113.536 59.6667 113.75 58.8854C113.969 58.099 114.198 57.3386 114.443 56.6094C114.687 55.875 114.948 55.1771 115.224 54.5052C115.495 53.8386 115.781 53.2031 116.083 52.6042C116.38 52.0052 116.693 51.4427 117.016 50.9167C117.339 50.3906 117.672 49.9063 118.01 49.4583C118.354 49.0156 118.703 48.6094 119.062 48.25C119.417 47.8854 119.781 47.5677 120.156 47.2917C120.526 47.0208 120.901 46.7917 121.281 46.6042C121.661 46.4219 122.042 46.2813 122.427 46.1875C122.812 46.099 123.198 46.0521 123.589 46.0521C123.974 46.0521 124.359 46.099 124.75 46.1875C125.135 46.2813 125.516 46.4219 125.896 46.6042C126.276 46.7917 126.651 47.0208 127.021 47.2917C127.391 47.5677 127.755 47.8854 128.115 48.25C128.474 48.6094 128.823 49.0156 129.167 49.4583C129.505 49.9063 129.839 50.3906 130.161 50.9167C130.484 51.4427 130.792 52.0052 131.094 52.6042C131.391 53.2031 131.677 53.8386 131.953 54.5052C132.229 55.1771 132.484 55.875 132.734 56.6094C132.979 57.3386 133.208 58.099 133.422 58.8854C133.641 59.6667 133.839 60.4792 134.021 61.3125C134.203 62.1458 134.37 63 134.516 63.875C134.667 64.75 134.797 65.6354 134.906 66.5417C135.021 67.4479 135.115 68.3646 135.193 69.2917C135.266 70.2188 135.323 71.1511 135.359 72.0938C135.401 73.0365 135.417 73.9792 135.417 74.9271Z" fill="#004AAD"/>
</svg>
