<svg xmlns="http://www.w3.org/2000/svg" xmlns:xlink="http://www.w3.org/1999/xlink" width="500" zoomAndPan="magnify" viewBox="0 0 375 374.999991" height="500" preserveAspectRatio="xMidYMid meet" version="1.0"><defs><g/><clipPath id="3ac3d71abc"><path d="M 52.402344 123.230469 L 136.835938 123.230469 L 136.835938 207.664062 L 52.402344 207.664062 Z M 52.402344 123.230469 " clip-rule="nonzero"/></clipPath><clipPath id="78bbf4b62b"><path d="M 94.617188 123.230469 C 91.847656 123.230469 89.101562 123.5 86.382812 124.042969 C 83.664062 124.582031 81.023438 125.382812 78.460938 126.445312 C 75.902344 127.503906 73.46875 128.804688 71.164062 130.34375 C 68.859375 131.886719 66.726562 133.636719 64.765625 135.59375 C 62.804688 137.554688 61.054688 139.6875 59.515625 141.992188 C 57.976562 144.296875 56.675781 146.730469 55.613281 149.292969 C 54.554688 151.851562 53.753906 154.492188 53.210938 157.210938 C 52.671875 159.929688 52.402344 162.675781 52.402344 165.449219 C 52.402344 168.21875 52.671875 170.964844 53.210938 173.683594 C 53.753906 176.402344 54.554688 179.042969 55.613281 181.601562 C 56.675781 184.164062 57.976562 186.597656 59.515625 188.902344 C 61.054688 191.207031 62.804688 193.339844 64.765625 195.300781 C 66.726562 197.257812 68.859375 199.007812 71.164062 200.550781 C 73.46875 202.089844 75.902344 203.390625 78.460938 204.449219 C 81.023438 205.511719 83.664062 206.3125 86.382812 206.851562 C 89.101562 207.394531 91.847656 207.664062 94.617188 207.664062 C 97.390625 207.664062 100.136719 207.394531 102.855469 206.851562 C 105.574219 206.3125 108.210938 205.511719 110.773438 204.449219 C 113.335938 203.390625 115.765625 202.089844 118.074219 200.550781 C 120.378906 199.007812 122.507812 197.257812 124.46875 195.300781 C 126.429688 193.339844 128.179688 191.207031 129.71875 188.902344 C 131.261719 186.597656 132.558594 184.164062 133.621094 181.601562 C 134.683594 179.042969 135.484375 176.402344 136.023438 173.683594 C 136.566406 170.964844 136.835938 168.21875 136.835938 165.449219 C 136.835938 162.675781 136.566406 159.929688 136.023438 157.210938 C 135.484375 154.492188 134.683594 151.851562 133.621094 149.292969 C 132.558594 146.730469 131.261719 144.296875 129.71875 141.992188 C 128.179688 139.6875 126.429688 137.554688 124.46875 135.59375 C 122.507812 133.636719 120.378906 131.886719 118.074219 130.34375 C 115.765625 128.804688 113.335938 127.503906 110.773438 126.445312 C 108.210938 125.382812 105.574219 124.582031 102.855469 124.042969 C 100.136719 123.5 97.390625 123.230469 94.617188 123.230469 Z M 94.617188 123.230469 " clip-rule="nonzero"/></clipPath><clipPath id="8b92766cd9"><path d="M 49 139.707031 L 143.839844 139.707031 L 143.839844 191 L 49 191 Z M 49 139.707031 " clip-rule="nonzero"/></clipPath></defs><g fill="#000000" fill-opacity="1"><g transform="translate(212.714667, 173.322586)"><g><path d="M 7.53125 -15.8125 L 11.765625 -15.8125 L 11.765625 -4.96875 C 11.765625 -3.9375 11.503906 -3.03125 10.984375 -2.25 C 10.472656 -1.476562 9.769531 -0.875 8.875 -0.4375 C 7.976562 0 6.945312 0.21875 5.78125 0.21875 C 4.757812 0.21875 3.828125 0.0390625 2.984375 -0.3125 C 2.148438 -0.664062 1.484375 -1.222656 0.984375 -1.984375 C 0.484375 -2.742188 0.238281 -3.726562 0.25 -4.9375 L 4.546875 -4.9375 C 4.554688 -4.539062 4.617188 -4.207031 4.734375 -3.9375 C 4.859375 -3.664062 5.03125 -3.460938 5.25 -3.328125 C 5.46875 -3.191406 5.738281 -3.125 6.0625 -3.125 C 6.375 -3.125 6.640625 -3.191406 6.859375 -3.328125 C 7.078125 -3.460938 7.242188 -3.664062 7.359375 -3.9375 C 7.472656 -4.21875 7.53125 -4.5625 7.53125 -4.96875 Z M 7.53125 -15.8125 "/></g></g></g><g fill="#000000" fill-opacity="1"><g transform="translate(227.028338, 173.322586)"><g><path d="M 16.34375 -7.90625 C 16.34375 -6.144531 16 -4.660156 15.3125 -3.453125 C 14.625 -2.242188 13.695312 -1.328125 12.53125 -0.703125 C 11.375 -0.0859375 10.082031 0.21875 8.65625 0.21875 C 7.207031 0.21875 5.898438 -0.09375 4.734375 -0.71875 C 3.578125 -1.34375 2.65625 -2.257812 1.96875 -3.46875 C 1.289062 -4.675781 0.953125 -6.15625 0.953125 -7.90625 C 0.953125 -9.664062 1.289062 -11.148438 1.96875 -12.359375 C 2.65625 -13.566406 3.578125 -14.476562 4.734375 -15.09375 C 5.898438 -15.71875 7.207031 -16.03125 8.65625 -16.03125 C 10.082031 -16.03125 11.375 -15.71875 12.53125 -15.09375 C 13.695312 -14.476562 14.625 -13.566406 15.3125 -12.359375 C 16 -11.148438 16.34375 -9.664062 16.34375 -7.90625 Z M 11.921875 -7.90625 C 11.921875 -8.851562 11.796875 -9.648438 11.546875 -10.296875 C 11.296875 -10.953125 10.925781 -11.445312 10.4375 -11.78125 C 9.957031 -12.125 9.363281 -12.296875 8.65625 -12.296875 C 7.9375 -12.296875 7.332031 -12.125 6.84375 -11.78125 C 6.363281 -11.445312 6 -10.953125 5.75 -10.296875 C 5.5 -9.648438 5.375 -8.851562 5.375 -7.90625 C 5.375 -6.957031 5.5 -6.15625 5.75 -5.5 C 6 -4.851562 6.363281 -4.359375 6.84375 -4.015625 C 7.332031 -3.679688 7.9375 -3.515625 8.65625 -3.515625 C 9.363281 -3.515625 9.957031 -3.679688 10.4375 -4.015625 C 10.925781 -4.359375 11.296875 -4.851562 11.546875 -5.5 C 11.796875 -6.15625 11.921875 -6.957031 11.921875 -7.90625 Z M 11.921875 -7.90625 "/></g></g></g><g fill="#000000" fill-opacity="1"><g transform="translate(245.852641, 173.322586)"><g><path d="M 5.3125 -15.8125 L 5.3125 0 L 1.015625 0 L 1.015625 -15.8125 Z M 5.3125 -15.8125 "/></g></g></g><g fill="#000000" fill-opacity="1"><g transform="translate(253.709304, 173.322586)"><g><path d="M 14.703125 -15.8125 L 14.703125 0 L 11.125 0 L 5.40625 -8.3125 L 5.3125 -8.3125 L 5.3125 0 L 1.015625 0 L 1.015625 -15.8125 L 4.671875 -15.8125 L 10.28125 -7.53125 L 10.40625 -7.53125 L 10.40625 -15.8125 Z M 14.703125 -15.8125 "/></g></g></g><g fill="#000000" fill-opacity="1"><g transform="translate(270.957973, 173.322586)"><g><path d="M 5.3125 -15.8125 L 5.3125 0 L 1.015625 0 L 1.015625 -15.8125 Z M 5.3125 -15.8125 "/></g></g></g><g fill="#000000" fill-opacity="1"><g transform="translate(278.814639, 173.322586)"><g><path d="M 0.59375 -12.359375 L 0.59375 -15.8125 L 14.328125 -15.8125 L 14.328125 -12.359375 L 9.578125 -12.359375 L 9.578125 0 L 5.34375 0 L 5.34375 -12.359375 Z M 0.59375 -12.359375 "/></g></g></g><g fill="#000000" fill-opacity="1"><g transform="translate(149.362553, 186.568346)"><g><path d="M 1.59375 -6.59375 L 1.59375 0 L 0.796875 0 L 0.796875 -6.59375 Z M 1.59375 -6.59375 "/></g></g></g><g fill="#000000" fill-opacity="1"><g transform="translate(153.932839, 186.568346)"><g><path d="M 6.03125 -6.59375 L 6.03125 0 L 5.25 0 L 1.65625 -5.171875 L 1.59375 -5.171875 L 1.59375 0 L 0.796875 0 L 0.796875 -6.59375 L 1.578125 -6.59375 L 5.171875 -1.40625 L 5.234375 -1.40625 L 5.234375 -6.59375 Z M 6.03125 -6.59375 "/></g></g></g><g fill="#000000" fill-opacity="1"><g transform="translate(162.929529, 186.568346)"><g><path d="M 4.40625 -4.9375 C 4.363281 -5.269531 4.203125 -5.523438 3.921875 -5.703125 C 3.648438 -5.878906 3.316406 -5.96875 2.921875 -5.96875 C 2.484375 -5.96875 2.128906 -5.863281 1.859375 -5.65625 C 1.597656 -5.457031 1.46875 -5.195312 1.46875 -4.875 C 1.46875 -4.644531 1.539062 -4.457031 1.6875 -4.3125 C 1.832031 -4.164062 2.003906 -4.050781 2.203125 -3.96875 C 2.398438 -3.882812 2.578125 -3.820312 2.734375 -3.78125 L 3.40625 -3.609375 C 3.582031 -3.554688 3.773438 -3.488281 3.984375 -3.40625 C 4.191406 -3.332031 4.394531 -3.226562 4.59375 -3.09375 C 4.789062 -2.957031 4.953125 -2.78125 5.078125 -2.5625 C 5.203125 -2.351562 5.265625 -2.097656 5.265625 -1.796875 C 5.265625 -1.429688 5.171875 -1.101562 4.984375 -0.8125 C 4.796875 -0.53125 4.523438 -0.304688 4.171875 -0.140625 C 3.816406 0.0234375 3.390625 0.109375 2.890625 0.109375 C 2.179688 0.109375 1.617188 -0.0546875 1.203125 -0.390625 C 0.785156 -0.722656 0.554688 -1.160156 0.515625 -1.703125 L 1.34375 -1.703125 C 1.363281 -1.453125 1.445312 -1.242188 1.59375 -1.078125 C 1.738281 -0.921875 1.921875 -0.800781 2.140625 -0.71875 C 2.367188 -0.644531 2.617188 -0.609375 2.890625 -0.609375 C 3.191406 -0.609375 3.460938 -0.65625 3.703125 -0.75 C 3.941406 -0.851562 4.132812 -0.992188 4.28125 -1.171875 C 4.425781 -1.347656 4.5 -1.554688 4.5 -1.796875 C 4.5 -2.015625 4.4375 -2.191406 4.3125 -2.328125 C 4.1875 -2.472656 4.023438 -2.585938 3.828125 -2.671875 C 3.628906 -2.753906 3.410156 -2.828125 3.171875 -2.890625 L 2.375 -3.125 C 1.851562 -3.269531 1.441406 -3.476562 1.140625 -3.75 C 0.835938 -4.03125 0.6875 -4.394531 0.6875 -4.84375 C 0.6875 -5.207031 0.785156 -5.523438 0.984375 -5.796875 C 1.191406 -6.078125 1.460938 -6.296875 1.796875 -6.453125 C 2.140625 -6.609375 2.523438 -6.6875 2.953125 -6.6875 C 3.367188 -6.6875 3.742188 -6.609375 4.078125 -6.453125 C 4.410156 -6.304688 4.671875 -6.097656 4.859375 -5.828125 C 5.054688 -5.566406 5.160156 -5.269531 5.171875 -4.9375 Z M 4.40625 -4.9375 "/></g></g></g><g fill="#000000" fill-opacity="1"><g transform="translate(170.883947, 186.568346)"><g><path d="M 0.796875 0 L 0.796875 -6.59375 L 3.03125 -6.59375 C 3.539062 -6.59375 3.957031 -6.5 4.28125 -6.3125 C 4.613281 -6.125 4.859375 -5.875 5.015625 -5.5625 C 5.179688 -5.25 5.265625 -4.894531 5.265625 -4.5 C 5.265625 -4.113281 5.1875 -3.757812 5.03125 -3.4375 C 4.875 -3.125 4.628906 -2.875 4.296875 -2.6875 C 3.972656 -2.5 3.550781 -2.40625 3.03125 -2.40625 L 1.59375 -2.40625 L 1.59375 0 Z M 1.59375 -3.109375 L 3.015625 -3.109375 C 3.546875 -3.109375 3.921875 -3.238281 4.140625 -3.5 C 4.367188 -3.769531 4.484375 -4.101562 4.484375 -4.5 C 4.484375 -4.894531 4.367188 -5.222656 4.140625 -5.484375 C 3.910156 -5.753906 3.53125 -5.890625 3 -5.890625 L 1.59375 -5.890625 Z M 1.59375 -3.109375 "/></g></g></g><g fill="#000000" fill-opacity="1"><g transform="translate(178.812639, 186.568346)"><g><path d="M 1.59375 -6.59375 L 1.59375 0 L 0.796875 0 L 0.796875 -6.59375 Z M 1.59375 -6.59375 "/></g></g></g><g fill="#000000" fill-opacity="1"><g transform="translate(183.382926, 186.568346)"><g><path d="M 0.796875 0 L 0.796875 -6.59375 L 3.03125 -6.59375 C 3.539062 -6.59375 3.957031 -6.503906 4.28125 -6.328125 C 4.613281 -6.148438 4.859375 -5.910156 5.015625 -5.609375 C 5.179688 -5.304688 5.265625 -4.957031 5.265625 -4.5625 C 5.265625 -4.125 5.160156 -3.742188 4.953125 -3.421875 C 4.753906 -3.097656 4.445312 -2.863281 4.03125 -2.71875 L 5.515625 0 L 4.59375 0 L 3.203125 -2.578125 C 3.148438 -2.578125 3.09375 -2.578125 3.03125 -2.578125 L 1.59375 -2.578125 L 1.59375 0 Z M 1.59375 -3.296875 L 3.015625 -3.296875 C 3.535156 -3.296875 3.910156 -3.410156 4.140625 -3.640625 C 4.367188 -3.867188 4.484375 -4.175781 4.484375 -4.5625 C 4.484375 -4.96875 4.367188 -5.289062 4.140625 -5.53125 C 3.910156 -5.769531 3.53125 -5.890625 3 -5.890625 L 1.59375 -5.890625 Z M 1.59375 -3.296875 "/></g></g></g><g fill="#000000" fill-opacity="1"><g transform="translate(191.350219, 186.568346)"><g><path d="M 1.59375 -6.59375 L 1.59375 0 L 0.796875 0 L 0.796875 -6.59375 Z M 1.59375 -6.59375 "/></g></g></g><g fill="#000000" fill-opacity="1"><g transform="translate(195.920506, 186.568346)"><g><path d="M 6.03125 -6.59375 L 6.03125 0 L 5.25 0 L 1.65625 -5.171875 L 1.59375 -5.171875 L 1.59375 0 L 0.796875 0 L 0.796875 -6.59375 L 1.578125 -6.59375 L 5.171875 -1.40625 L 5.234375 -1.40625 L 5.234375 -6.59375 Z M 6.03125 -6.59375 "/></g></g></g><g fill="#000000" fill-opacity="1"><g transform="translate(204.917195, 186.568346)"><g><path d="M 5.296875 -4.53125 C 5.160156 -4.96875 4.929688 -5.3125 4.609375 -5.5625 C 4.296875 -5.8125 3.898438 -5.9375 3.421875 -5.9375 C 3.035156 -5.9375 2.679688 -5.832031 2.359375 -5.625 C 2.035156 -5.425781 1.78125 -5.128906 1.59375 -4.734375 C 1.40625 -4.347656 1.3125 -3.867188 1.3125 -3.296875 C 1.3125 -2.722656 1.40625 -2.238281 1.59375 -1.84375 C 1.789062 -1.457031 2.050781 -1.160156 2.375 -0.953125 C 2.695312 -0.753906 3.0625 -0.65625 3.46875 -0.65625 C 3.84375 -0.65625 4.171875 -0.734375 4.453125 -0.890625 C 4.742188 -1.046875 4.96875 -1.269531 5.125 -1.5625 C 5.289062 -1.851562 5.378906 -2.195312 5.390625 -2.59375 L 3.65625 -2.59375 L 3.65625 -3.296875 L 6.171875 -3.296875 L 6.171875 -2.59375 C 6.171875 -2.039062 6.050781 -1.5625 5.8125 -1.15625 C 5.582031 -0.757812 5.265625 -0.453125 4.859375 -0.234375 C 4.460938 -0.015625 4 0.09375 3.46875 0.09375 C 2.882812 0.09375 2.375 -0.0390625 1.9375 -0.3125 C 1.5 -0.59375 1.15625 -0.984375 0.90625 -1.484375 C 0.664062 -1.992188 0.546875 -2.597656 0.546875 -3.296875 C 0.546875 -3.992188 0.664062 -4.59375 0.90625 -5.09375 C 1.15625 -5.601562 1.492188 -5.992188 1.921875 -6.265625 C 2.359375 -6.546875 2.859375 -6.6875 3.421875 -6.6875 C 3.890625 -6.6875 4.3125 -6.59375 4.6875 -6.40625 C 5.0625 -6.226562 5.375 -5.976562 5.625 -5.65625 C 5.875 -5.332031 6.039062 -4.957031 6.125 -4.53125 Z M 5.296875 -4.53125 "/></g></g></g><g fill="#000000" fill-opacity="1"><g transform="translate(213.82381, 186.568346)"><g/></g></g><g fill="#000000" fill-opacity="1"><g transform="translate(218.548503, 186.568346)"><g><path d="M 6.109375 -4.53125 L 5.296875 -4.53125 C 5.234375 -4.832031 5.109375 -5.085938 4.921875 -5.296875 C 4.742188 -5.503906 4.523438 -5.660156 4.265625 -5.765625 C 4.015625 -5.878906 3.742188 -5.9375 3.453125 -5.9375 C 3.046875 -5.9375 2.679688 -5.832031 2.359375 -5.625 C 2.035156 -5.425781 1.78125 -5.128906 1.59375 -4.734375 C 1.40625 -4.347656 1.3125 -3.867188 1.3125 -3.296875 C 1.3125 -2.722656 1.40625 -2.238281 1.59375 -1.84375 C 1.78125 -1.457031 2.035156 -1.160156 2.359375 -0.953125 C 2.679688 -0.753906 3.046875 -0.65625 3.453125 -0.65625 C 3.742188 -0.65625 4.015625 -0.707031 4.265625 -0.8125 C 4.523438 -0.925781 4.742188 -1.085938 4.921875 -1.296875 C 5.109375 -1.503906 5.234375 -1.757812 5.296875 -2.0625 L 6.109375 -2.0625 C 6.023438 -1.613281 5.851562 -1.226562 5.59375 -0.90625 C 5.34375 -0.582031 5.03125 -0.332031 4.65625 -0.15625 C 4.289062 0.0078125 3.890625 0.09375 3.453125 0.09375 C 2.890625 0.09375 2.390625 -0.0390625 1.953125 -0.3125 C 1.515625 -0.59375 1.171875 -0.984375 0.921875 -1.484375 C 0.671875 -1.992188 0.546875 -2.597656 0.546875 -3.296875 C 0.546875 -3.992188 0.671875 -4.59375 0.921875 -5.09375 C 1.171875 -5.601562 1.515625 -5.992188 1.953125 -6.265625 C 2.390625 -6.546875 2.890625 -6.6875 3.453125 -6.6875 C 3.890625 -6.6875 4.289062 -6.597656 4.65625 -6.421875 C 5.03125 -6.253906 5.34375 -6.007812 5.59375 -5.6875 C 5.851562 -5.363281 6.023438 -4.976562 6.109375 -4.53125 Z M 6.109375 -4.53125 "/></g></g></g><g fill="#000000" fill-opacity="1"><g transform="translate(227.313579, 186.568346)"><g><path d="M 6.359375 -3.296875 C 6.359375 -2.597656 6.234375 -1.992188 5.984375 -1.484375 C 5.734375 -0.984375 5.390625 -0.59375 4.953125 -0.3125 C 4.515625 -0.0390625 4.015625 0.09375 3.453125 0.09375 C 2.890625 0.09375 2.390625 -0.0390625 1.953125 -0.3125 C 1.515625 -0.59375 1.171875 -0.984375 0.921875 -1.484375 C 0.671875 -1.992188 0.546875 -2.597656 0.546875 -3.296875 C 0.546875 -3.992188 0.671875 -4.59375 0.921875 -5.09375 C 1.171875 -5.601562 1.515625 -5.992188 1.953125 -6.265625 C 2.390625 -6.546875 2.890625 -6.6875 3.453125 -6.6875 C 4.015625 -6.6875 4.515625 -6.546875 4.953125 -6.265625 C 5.390625 -5.992188 5.734375 -5.601562 5.984375 -5.09375 C 6.234375 -4.59375 6.359375 -3.992188 6.359375 -3.296875 Z M 5.59375 -3.296875 C 5.59375 -3.867188 5.492188 -4.347656 5.296875 -4.734375 C 5.109375 -5.128906 4.851562 -5.425781 4.53125 -5.625 C 4.207031 -5.832031 3.847656 -5.9375 3.453125 -5.9375 C 3.046875 -5.9375 2.679688 -5.832031 2.359375 -5.625 C 2.035156 -5.425781 1.78125 -5.128906 1.59375 -4.734375 C 1.40625 -4.347656 1.3125 -3.867188 1.3125 -3.296875 C 1.3125 -2.722656 1.40625 -2.238281 1.59375 -1.84375 C 1.78125 -1.457031 2.035156 -1.160156 2.359375 -0.953125 C 2.679688 -0.753906 3.046875 -0.65625 3.453125 -0.65625 C 3.847656 -0.65625 4.207031 -0.753906 4.53125 -0.953125 C 4.851562 -1.160156 5.109375 -1.457031 5.296875 -1.84375 C 5.492188 -2.238281 5.59375 -2.722656 5.59375 -3.296875 Z M 5.59375 -3.296875 "/></g></g></g><g fill="#000000" fill-opacity="1"><g transform="translate(236.387473, 186.568346)"><g><path d="M 0.796875 -6.59375 L 1.75 -6.59375 L 3.984375 -1.125 L 4.0625 -1.125 L 6.3125 -6.59375 L 7.265625 -6.59375 L 7.265625 0 L 6.515625 0 L 6.515625 -5 L 6.453125 -5 L 4.390625 0 L 3.671875 0 L 1.609375 -5 L 1.546875 -5 L 1.546875 0 L 0.796875 0 Z M 0.796875 -6.59375 "/></g></g></g><g fill="#000000" fill-opacity="1"><g transform="translate(246.825319, 186.568346)"><g><path d="M 0.796875 -6.59375 L 1.75 -6.59375 L 3.984375 -1.125 L 4.0625 -1.125 L 6.3125 -6.59375 L 7.265625 -6.59375 L 7.265625 0 L 6.515625 0 L 6.515625 -5 L 6.453125 -5 L 4.390625 0 L 3.671875 0 L 1.609375 -5 L 1.546875 -5 L 1.546875 0 L 0.796875 0 Z M 0.796875 -6.59375 "/></g></g></g><g fill="#000000" fill-opacity="1"><g transform="translate(257.263165, 186.568346)"><g><path d="M 5.125 -6.59375 L 5.921875 -6.59375 L 5.921875 -2.234375 C 5.921875 -1.734375 5.800781 -1.304688 5.5625 -0.953125 C 5.332031 -0.609375 5.023438 -0.34375 4.640625 -0.15625 C 4.253906 0.0195312 3.828125 0.109375 3.359375 0.109375 C 2.898438 0.109375 2.472656 0.0195312 2.078125 -0.15625 C 1.691406 -0.34375 1.378906 -0.609375 1.140625 -0.953125 C 0.910156 -1.304688 0.796875 -1.734375 0.796875 -2.234375 L 0.796875 -6.59375 L 1.59375 -6.59375 L 1.59375 -2.234375 C 1.59375 -1.890625 1.671875 -1.597656 1.828125 -1.359375 C 1.992188 -1.117188 2.210938 -0.9375 2.484375 -0.8125 C 2.753906 -0.6875 3.046875 -0.625 3.359375 -0.625 C 3.671875 -0.625 3.960938 -0.6875 4.234375 -0.8125 C 4.503906 -0.9375 4.71875 -1.117188 4.875 -1.359375 C 5.039062 -1.597656 5.125 -1.890625 5.125 -2.234375 Z M 5.125 -6.59375 "/></g></g></g><g fill="#000000" fill-opacity="1"><g transform="translate(266.156918, 186.568346)"><g><path d="M 6.03125 -6.59375 L 6.03125 0 L 5.25 0 L 1.65625 -5.171875 L 1.59375 -5.171875 L 1.59375 0 L 0.796875 0 L 0.796875 -6.59375 L 1.578125 -6.59375 L 5.171875 -1.40625 L 5.234375 -1.40625 L 5.234375 -6.59375 Z M 6.03125 -6.59375 "/></g></g></g><g fill="#000000" fill-opacity="1"><g transform="translate(275.15361, 186.568346)"><g><path d="M 1.59375 -6.59375 L 1.59375 0 L 0.796875 0 L 0.796875 -6.59375 Z M 1.59375 -6.59375 "/></g></g></g><g fill="#000000" fill-opacity="1"><g transform="translate(279.723899, 186.568346)"><g><path d="M 0.4375 -5.890625 L 0.4375 -6.59375 L 5.375 -6.59375 L 5.375 -5.890625 L 3.3125 -5.890625 L 3.3125 0 L 2.515625 0 L 2.515625 -5.890625 Z M 0.4375 -5.890625 "/></g></g></g><g fill="#000000" fill-opacity="1"><g transform="translate(287.716933, 186.568346)"><g><path d="M 0.234375 -6.59375 L 1.140625 -6.59375 L 2.96875 -3.515625 L 3.046875 -3.515625 L 4.875 -6.59375 L 5.796875 -6.59375 L 3.40625 -2.71875 L 3.40625 0 L 2.609375 0 L 2.609375 -2.71875 Z M 0.234375 -6.59375 "/></g></g></g><g clip-path="url(#3ac3d71abc)"><g clip-path="url(#78bbf4b62b)"><path fill="#004aad" d="M 52.402344 123.230469 L 136.835938 123.230469 L 136.835938 207.664062 L 52.402344 207.664062 Z M 52.402344 123.230469 " fill-opacity="1" fill-rule="nonzero"/></g></g><path fill="#ffffff" d="M 131.8125 140.949219 C 131.535156 140.949219 131.277344 140.96875 131 141.007812 C 130.800781 141.046875 130.601562 141.085938 130.402344 141.148438 L 51.367188 159.34375 C 51.367188 159.34375 50.472656 160.90625 50.472656 164.226562 C 50.472656 167.542969 51.367188 169.699219 51.367188 169.699219 L 130.246094 189.398438 C 130.761719 189.578125 131.257812 189.65625 131.792969 189.65625 C 137.6875 189.65625 142.292969 178.945312 142.292969 165.292969 C 142.332031 151.660156 137.707031 140.949219 131.8125 140.949219 Z M 131.8125 140.949219 " fill-opacity="1" fill-rule="nonzero"/><g clip-path="url(#8b92766cd9)"><path fill="#000000" d="M 140.230469 147.609375 C 138.105469 142.667969 135.109375 139.941406 131.832031 139.941406 C 131.496094 139.941406 131.199219 139.960938 130.917969 140.019531 L 130.859375 140.019531 C 130.640625 140.058594 130.402344 140.101562 130.183594 140.160156 L 51.167969 158.355469 L 50.730469 158.457031 L 50.515625 158.851562 L 50.492188 158.871094 C 50.253906 159.324219 49.5 161.023438 49.5 164.226562 C 49.5 167.40625 50.296875 169.738281 50.453125 170.09375 L 50.652344 170.566406 L 59.742188 172.839844 L 59.742188 178.511719 C 59.742188 179.261719 60.277344 179.953125 60.992188 180.132812 C 62.71875 180.546875 64.425781 180.980469 66.152344 181.394531 C 67.882812 181.832031 69.609375 182.246094 71.335938 182.660156 C 71.472656 182.699219 71.613281 182.699219 71.75 182.699219 C 72.683594 182.699219 73.4375 181.949219 73.4375 181.039062 L 73.4375 176.21875 L 130.007812 190.386719 C 130.582031 190.582031 131.199219 190.683594 131.871094 190.683594 C 135.167969 190.683594 138.144531 187.957031 140.269531 183.015625 C 142.273438 178.332031 143.382812 172.050781 143.382812 165.3125 C 143.34375 158.59375 142.253906 152.3125 140.230469 147.609375 Z M 70.042969 178.925781 C 69.191406 178.707031 67.386719 178.273438 65.875 177.898438 C 64.683594 177.601562 63.574219 177.34375 63.058594 177.207031 L 63.058594 173.671875 L 70.042969 175.410156 Z M 138.421875 181.910156 C 136.617188 186.238281 134.273438 188.628906 131.8125 188.628906 C 131.417969 188.628906 131.019531 188.570312 130.582031 188.429688 L 130.503906 188.410156 L 73.121094 174.085938 L 62.640625 171.476562 L 60.816406 171.023438 L 52.199219 168.828125 C 51.941406 167.921875 51.566406 166.28125 51.566406 164.207031 C 51.566406 162.152344 51.921875 160.828125 52.160156 160.214844 L 130.640625 142.15625 L 130.683594 142.15625 L 130.722656 142.136719 C 130.800781 142.113281 130.878906 142.09375 130.960938 142.074219 C 131.019531 142.054688 131.097656 142.035156 131.15625 142.035156 L 131.199219 142.035156 C 131.417969 141.996094 131.613281 141.976562 131.8125 141.976562 C 134.273438 141.976562 136.617188 144.367188 138.421875 148.695312 C 140.269531 153.140625 141.28125 159.027344 141.28125 165.292969 C 141.28125 171.554688 140.269531 177.484375 138.421875 181.910156 Z M 138.421875 181.910156 " fill-opacity="1" fill-rule="nonzero"/></g><path fill="#000000" d="M 49.421875 159.363281 C 49.460938 159.285156 49.441406 159.304688 49.421875 159.363281 Z M 49.421875 159.363281 " fill-opacity="1" fill-rule="nonzero"/><path fill="#000000" d="M 48.648438 164.757812 C 48.589844 163.433594 48.648438 162.109375 48.964844 160.828125 C 49.066406 160.410156 49.183594 159.996094 49.324219 159.621094 C 49.363281 159.523438 49.402344 159.425781 49.421875 159.363281 C 49.421875 159.382812 49.402344 159.382812 49.402344 159.402344 C 50.097656 157.941406 47.894531 156.636719 47.199219 158.121094 C 46.285156 160.054688 46.046875 162.289062 46.085938 164.382812 C 46.128906 166.242188 46.304688 168.257812 46.941406 170.035156 C 47.496094 171.574219 49.9375 170.921875 49.421875 169.363281 C 48.886719 167.902344 48.707031 166.300781 48.648438 164.757812 Z M 48.648438 164.757812 " fill-opacity="1" fill-rule="nonzero"/><path fill="#004aad" d="M 93.960938 155.984375 C 101.324219 154.285156 108.710938 152.605469 116.09375 150.90625 C 117.125 150.671875 118.175781 150.414062 119.210938 150.175781 C 120.796875 149.800781 120.140625 147.351562 118.515625 147.726562 C 111.152344 149.425781 103.765625 151.105469 96.382812 152.804688 C 95.351562 153.042969 94.300781 153.296875 93.265625 153.535156 C 91.699219 153.910156 92.355469 156.359375 93.960938 155.984375 Z M 93.960938 155.984375 " fill-opacity="1" fill-rule="nonzero"/><path fill="#004aad" d="M 139.929688 165.390625 C 139.929688 166.101562 139.917969 166.808594 139.886719 167.515625 C 139.859375 168.21875 139.816406 168.921875 139.761719 169.617188 C 139.703125 170.3125 139.632812 171 139.550781 171.675781 C 139.464844 172.355469 139.367188 173.023438 139.253906 173.679688 C 139.144531 174.332031 139.019531 174.972656 138.882812 175.601562 C 138.746094 176.226562 138.597656 176.832031 138.4375 177.421875 C 138.273438 178.011719 138.101562 178.582031 137.917969 179.128906 C 137.734375 179.679688 137.539062 180.203125 137.332031 180.703125 C 137.128906 181.207031 136.910156 181.679688 136.6875 182.132812 C 136.460938 182.582031 136.230469 183.003906 135.988281 183.398438 C 135.746094 183.792969 135.496094 184.15625 135.242188 184.488281 C 134.984375 184.824219 134.722656 185.128906 134.453125 185.398438 C 134.1875 185.671875 133.914062 185.910156 133.632812 186.113281 C 133.355469 186.320312 133.074219 186.492188 132.789062 186.632812 C 132.503906 186.769531 132.21875 186.875 131.929688 186.941406 C 131.640625 187.011719 131.347656 187.046875 131.058594 187.046875 C 130.769531 187.046875 130.476562 187.011719 130.1875 186.941406 C 129.898438 186.875 129.613281 186.769531 129.328125 186.632812 C 129.042969 186.492188 128.761719 186.320312 128.484375 186.113281 C 128.207031 185.910156 127.933594 185.671875 127.664062 185.398438 C 127.394531 185.128906 127.132812 184.824219 126.875 184.488281 C 126.621094 184.15625 126.371094 183.792969 126.128906 183.398438 C 125.886719 183.003906 125.65625 182.582031 125.429688 182.132812 C 125.207031 181.679688 124.992188 181.207031 124.785156 180.703125 C 124.578125 180.203125 124.386719 179.679688 124.199219 179.128906 C 124.015625 178.582031 123.84375 178.011719 123.683594 177.421875 C 123.519531 176.832031 123.371094 176.226562 123.234375 175.601562 C 123.097656 174.972656 122.972656 174.332031 122.863281 173.679688 C 122.75 173.023438 122.652344 172.355469 122.570312 171.675781 C 122.484375 171 122.414062 170.3125 122.355469 169.617188 C 122.300781 168.921875 122.257812 168.21875 122.230469 167.515625 C 122.199219 166.808594 122.1875 166.101562 122.1875 165.390625 C 122.1875 164.683594 122.199219 163.972656 122.230469 163.269531 C 122.257812 162.5625 122.300781 161.863281 122.355469 161.167969 C 122.414062 160.46875 122.484375 159.785156 122.570312 159.105469 C 122.652344 158.425781 122.75 157.757812 122.863281 157.105469 C 122.972656 156.449219 123.097656 155.808594 123.234375 155.183594 C 123.371094 154.558594 123.519531 153.949219 123.683594 153.359375 C 123.84375 152.769531 124.015625 152.199219 124.199219 151.652344 C 124.386719 151.105469 124.578125 150.578125 124.785156 150.078125 C 124.992188 149.578125 125.207031 149.101562 125.429688 148.652344 C 125.65625 148.199219 125.886719 147.777344 126.128906 147.386719 C 126.371094 146.992188 126.621094 146.625 126.875 146.292969 C 127.132812 145.957031 127.394531 145.65625 127.664062 145.382812 C 127.933594 145.113281 128.207031 144.875 128.484375 144.667969 C 128.761719 144.460938 129.042969 144.289062 129.328125 144.152344 C 129.613281 144.011719 129.898438 143.910156 130.1875 143.839844 C 130.476562 143.769531 130.769531 143.734375 131.058594 143.734375 C 131.347656 143.734375 131.640625 143.769531 131.929688 143.839844 C 132.21875 143.910156 132.503906 144.011719 132.789062 144.152344 C 133.074219 144.289062 133.355469 144.460938 133.632812 144.667969 C 133.914062 144.875 134.1875 145.113281 134.453125 145.382812 C 134.722656 145.65625 134.984375 145.957031 135.242188 146.292969 C 135.496094 146.625 135.746094 146.992188 135.988281 147.386719 C 136.230469 147.777344 136.460938 148.199219 136.6875 148.652344 C 136.910156 149.101562 137.128906 149.578125 137.332031 150.078125 C 137.539062 150.578125 137.734375 151.105469 137.917969 151.652344 C 138.101562 152.199219 138.273438 152.769531 138.4375 153.359375 C 138.597656 153.949219 138.746094 154.558594 138.882812 155.183594 C 139.019531 155.808594 139.144531 156.449219 139.253906 157.105469 C 139.367188 157.757812 139.464844 158.425781 139.550781 159.105469 C 139.632812 159.785156 139.703125 160.46875 139.761719 161.167969 C 139.816406 161.863281 139.859375 162.5625 139.886719 163.269531 C 139.917969 163.972656 139.929688 164.683594 139.929688 165.390625 Z M 139.929688 165.390625 " fill-opacity="1" fill-rule="nonzero"/></svg>