<svg xmlns="http://www.w3.org/2000/svg" xmlns:xlink="http://www.w3.org/1999/xlink" width="500" zoomAndPan="magnify" viewBox="0 0 375 374.999991" height="500" preserveAspectRatio="xMidYMid meet" version="1.0"><defs><clipPath id="c2efb5679c"><path d="M 131.25 131.25 L 243.75 131.25 L 243.75 243.75 L 131.25 243.75 Z M 131.25 131.25 " clip-rule="nonzero"/></clipPath><clipPath id="148728a1cf"><path d="M 148.5 131.25 L 226.5 131.25 C 231.074219 131.25 235.460938 133.066406 238.699219 136.300781 C 241.933594 139.539062 243.75 143.925781 243.75 148.5 L 243.75 226.5 C 243.75 231.074219 241.933594 235.460938 238.699219 238.699219 C 235.460938 241.933594 231.074219 243.75 226.5 243.75 L 148.5 243.75 C 143.925781 243.75 139.539062 241.933594 136.300781 238.699219 C 133.066406 235.460938 131.25 231.074219 131.25 226.5 L 131.25 148.5 C 131.25 143.925781 133.066406 139.539062 136.300781 136.300781 C 139.539062 133.066406 143.925781 131.25 148.5 131.25 Z M 148.5 131.25 " clip-rule="nonzero"/></clipPath><clipPath id="761732fb1f"><path d="M 142 161.761719 L 236.722656 161.761719 L 236.722656 213 L 142 213 Z M 142 161.761719 " clip-rule="nonzero"/></clipPath><clipPath id="563a137f85"><path d="M 138.472656 179 L 143 179 L 143 193 L 138.472656 193 Z M 138.472656 179 " clip-rule="nonzero"/></clipPath></defs><g clip-path="url(#c2efb5679c)"><g clip-path="url(#148728a1cf)"><path fill="#004aad" d="M 131.25 131.25 L 243.75 131.25 L 243.75 243.75 L 131.25 243.75 Z M 131.25 131.25 " fill-opacity="1" fill-rule="nonzero"/></g></g><path fill="#ffffff" d="M 224.695312 163 C 224.417969 163 224.160156 163.019531 223.882812 163.0625 C 223.683594 163.101562 223.484375 163.140625 223.285156 163.199219 L 144.25 181.398438 C 144.25 181.398438 143.355469 182.957031 143.355469 186.277344 C 143.355469 189.597656 144.25 191.75 144.25 191.75 L 223.128906 211.449219 C 223.644531 211.628906 224.140625 211.707031 224.675781 211.707031 C 230.570312 211.707031 235.175781 201 235.175781 187.34375 C 235.214844 173.710938 230.589844 163 224.695312 163 Z M 224.695312 163 " fill-opacity="1" fill-rule="nonzero"/><g clip-path="url(#761732fb1f)"><path fill="#000000" d="M 233.109375 169.660156 C 230.988281 164.722656 227.988281 161.992188 224.714844 161.992188 C 224.378906 161.992188 224.078125 162.015625 223.800781 162.074219 L 223.742188 162.074219 C 223.523438 162.113281 223.285156 162.152344 223.066406 162.210938 L 144.050781 180.410156 L 143.613281 180.507812 L 143.394531 180.902344 L 143.375 180.921875 C 143.136719 181.378906 142.382812 183.078125 142.382812 186.277344 C 142.382812 189.460938 143.175781 191.789062 143.335938 192.144531 L 143.535156 192.621094 L 152.625 194.894531 L 152.625 200.5625 C 152.625 201.3125 153.160156 202.007812 153.875 202.183594 C 155.601562 202.597656 157.308594 203.035156 159.035156 203.449219 C 160.761719 203.882812 162.488281 204.296875 164.21875 204.714844 C 164.355469 204.753906 164.496094 204.753906 164.632812 204.753906 C 165.566406 204.753906 166.320312 204 166.320312 203.09375 L 166.320312 198.273438 L 222.890625 212.4375 C 223.464844 212.636719 224.078125 212.734375 224.753906 212.734375 C 228.050781 212.734375 231.027344 210.007812 233.152344 205.070312 C 235.15625 200.386719 236.265625 194.101562 236.265625 187.363281 C 236.226562 180.648438 235.136719 174.363281 233.109375 169.660156 Z M 162.925781 200.980469 C 162.074219 200.761719 160.265625 200.328125 158.757812 199.949219 C 157.566406 199.65625 156.457031 199.398438 155.941406 199.257812 L 155.941406 195.722656 L 162.925781 197.460938 Z M 231.304688 203.960938 C 229.5 208.289062 227.15625 210.679688 224.695312 210.679688 C 224.296875 210.679688 223.902344 210.621094 223.464844 210.484375 L 223.386719 210.460938 L 166.003906 196.136719 L 155.523438 193.53125 L 153.695312 193.074219 L 145.082031 190.882812 C 144.824219 189.972656 144.449219 188.332031 144.449219 186.257812 C 144.449219 184.203125 144.804688 182.878906 145.042969 182.265625 L 223.523438 164.207031 L 223.5625 164.207031 L 223.601562 164.1875 C 223.683594 164.167969 223.761719 164.148438 223.839844 164.128906 C 223.902344 164.109375 223.980469 164.089844 224.039062 164.089844 L 224.078125 164.089844 C 224.296875 164.050781 224.496094 164.027344 224.695312 164.027344 C 227.15625 164.027344 229.5 166.421875 231.304688 170.746094 C 233.152344 175.191406 234.164062 181.082031 234.164062 187.34375 C 234.164062 193.609375 233.152344 199.535156 231.304688 203.960938 Z M 231.304688 203.960938 " fill-opacity="1" fill-rule="nonzero"/></g><path fill="#000000" d="M 142.304688 181.417969 C 142.34375 181.339844 142.324219 181.359375 142.304688 181.417969 Z M 142.304688 181.417969 " fill-opacity="1" fill-rule="nonzero"/><g clip-path="url(#563a137f85)"><path fill="#000000" d="M 141.53125 186.8125 C 141.46875 185.488281 141.53125 184.164062 141.847656 182.878906 C 141.945312 182.464844 142.066406 182.050781 142.203125 181.675781 C 142.246094 181.574219 142.285156 181.476562 142.304688 181.417969 C 142.304688 181.4375 142.285156 181.4375 142.285156 181.457031 C 142.980469 179.996094 140.777344 178.691406 140.082031 180.171875 C 139.167969 182.109375 138.929688 184.339844 138.96875 186.4375 C 139.007812 188.292969 139.1875 190.308594 139.824219 192.085938 C 140.378906 193.628906 142.820312 192.976562 142.304688 191.414062 C 141.769531 189.953125 141.589844 188.351562 141.53125 186.8125 Z M 141.53125 186.8125 " fill-opacity="1" fill-rule="nonzero"/></g><path fill="#004aad" d="M 186.84375 178.039062 C 194.207031 176.339844 201.589844 174.660156 208.976562 172.960938 C 210.007812 172.722656 211.058594 172.464844 212.089844 172.230469 C 213.679688 171.855469 213.023438 169.402344 211.398438 169.777344 C 204.03125 171.476562 196.648438 173.15625 189.265625 174.855469 C 188.234375 175.09375 187.179688 175.351562 186.148438 175.589844 C 184.582031 175.964844 185.238281 178.414062 186.84375 178.039062 Z M 186.84375 178.039062 " fill-opacity="1" fill-rule="nonzero"/><path fill="#004aad" d="M 232.8125 187.445312 C 232.8125 188.152344 232.800781 188.859375 232.769531 189.566406 C 232.742188 190.273438 232.699219 190.972656 232.644531 191.667969 C 232.585938 192.363281 232.515625 193.050781 232.429688 193.730469 C 232.347656 194.410156 232.25 195.074219 232.136719 195.730469 C 232.027344 196.386719 231.902344 197.027344 231.765625 197.652344 C 231.628906 198.277344 231.480469 198.886719 231.316406 199.476562 C 231.15625 200.066406 230.984375 200.632812 230.800781 201.183594 C 230.613281 201.730469 230.421875 202.253906 230.214844 202.757812 C 230.007812 203.257812 229.792969 203.734375 229.570312 204.183594 C 229.34375 204.632812 229.113281 205.054688 228.871094 205.449219 C 228.628906 205.84375 228.378906 206.207031 228.125 206.542969 C 227.867188 206.875 227.605469 207.179688 227.335938 207.449219 C 227.066406 207.722656 226.792969 207.960938 226.515625 208.167969 C 226.238281 208.371094 225.957031 208.546875 225.671875 208.683594 C 225.386719 208.820312 225.101562 208.925781 224.8125 208.996094 C 224.519531 209.066406 224.230469 209.097656 223.941406 209.097656 C 223.648438 209.097656 223.359375 209.066406 223.070312 208.996094 C 222.78125 208.925781 222.496094 208.820312 222.210938 208.683594 C 221.925781 208.546875 221.644531 208.371094 221.367188 208.167969 C 221.085938 207.960938 220.8125 207.722656 220.546875 207.449219 C 220.277344 207.179688 220.015625 206.875 219.757812 206.542969 C 219.503906 206.207031 219.253906 205.84375 219.011719 205.449219 C 218.769531 205.054688 218.535156 204.632812 218.3125 204.183594 C 218.085938 203.734375 217.871094 203.257812 217.667969 202.757812 C 217.460938 202.253906 217.265625 201.730469 217.082031 201.183594 C 216.898438 200.632812 216.726562 200.066406 216.5625 199.476562 C 216.402344 198.886719 216.253906 198.277344 216.117188 197.652344 C 215.980469 197.027344 215.855469 196.386719 215.742188 195.730469 C 215.632812 195.074219 215.535156 194.410156 215.449219 193.730469 C 215.367188 193.050781 215.296875 192.363281 215.238281 191.667969 C 215.183594 190.972656 215.140625 190.273438 215.113281 189.566406 C 215.082031 188.859375 215.070312 188.152344 215.070312 187.445312 C 215.070312 186.734375 215.082031 186.027344 215.113281 185.320312 C 215.140625 184.613281 215.183594 183.914062 215.238281 183.21875 C 215.296875 182.523438 215.367188 181.835938 215.449219 181.15625 C 215.535156 180.476562 215.632812 179.8125 215.742188 179.15625 C 215.855469 178.5 215.980469 177.859375 216.117188 177.234375 C 216.253906 176.609375 216.402344 176 216.5625 175.414062 C 216.726562 174.824219 216.898438 174.253906 217.082031 173.707031 C 217.265625 173.15625 217.460938 172.632812 217.667969 172.128906 C 217.871094 171.628906 218.085938 171.152344 218.3125 170.703125 C 218.535156 170.253906 218.769531 169.832031 219.011719 169.4375 C 219.253906 169.042969 219.503906 168.679688 219.757812 168.34375 C 220.015625 168.011719 220.277344 167.707031 220.546875 167.4375 C 220.8125 167.164062 221.085938 166.925781 221.367188 166.71875 C 221.644531 166.515625 221.925781 166.34375 222.210938 166.203125 C 222.496094 166.066406 222.78125 165.960938 223.070312 165.890625 C 223.359375 165.824219 223.648438 165.789062 223.941406 165.789062 C 224.230469 165.789062 224.519531 165.824219 224.8125 165.890625 C 225.101562 165.960938 225.386719 166.066406 225.671875 166.203125 C 225.957031 166.34375 226.238281 166.515625 226.515625 166.71875 C 226.792969 166.925781 227.066406 167.164062 227.335938 167.4375 C 227.605469 167.707031 227.867188 168.011719 228.125 168.34375 C 228.378906 168.679688 228.628906 169.042969 228.871094 169.4375 C 229.113281 169.832031 229.34375 170.253906 229.570312 170.703125 C 229.792969 171.152344 230.007812 171.628906 230.214844 172.128906 C 230.421875 172.632812 230.613281 173.15625 230.800781 173.707031 C 230.984375 174.253906 231.15625 174.824219 231.316406 175.414062 C 231.480469 176 231.628906 176.609375 231.765625 177.234375 C 231.902344 177.859375 232.027344 178.5 232.136719 179.15625 C 232.25 179.8125 232.347656 180.476562 232.429688 181.15625 C 232.515625 181.835938 232.585938 182.523438 232.644531 183.21875 C 232.699219 183.914062 232.742188 184.613281 232.769531 185.320312 C 232.800781 186.027344 232.8125 186.734375 232.8125 187.445312 Z M 232.8125 187.445312 " fill-opacity="1" fill-rule="nonzero"/></svg>